*
*
G04 PADS VX.2 Build Number: 5060570 generated Gerber (RS-274-X) file*
G04 PC Version=2.1*
*
%IN "PCB_ESP8684-MINI-1_V1.0"*%
*
%MOIN*%
*
%FSLAX35Y35*%
*
*
*
*
G04 PC Standard Apertures*
*
*
G04 Thermal Relief Aperture macro.*
%AMTER*
1,1,$1,0,0*
1,0,$1-$2,0,0*
21,0,$3,$4,0,0,45*
21,0,$3,$4,0,0,135*
%
*
*
G04 Annular Aperture macro.*
%AMANN*
1,1,$1,0,0*
1,0,$2,0,0*
%
*
*
G04 Odd Aperture macro.*
%AMODD*
1,1,$1,0,0*
1,0,$1-0.005,0,0*
%
*
*
G04 PC Custom Aperture Macros*
*
*
*
*
*
*
G04 PC Aperture Table*
*
%ADD010C,0.001*%
%ADD024C,0.005*%
%ADD055C,0.004*%
%ADD056C,0.012*%
%ADD060C,0.015*%
%ADD204C,0.00394*%
%ADD269C,0.018*%
%ADD310C,0.01575*%
*
*
*
*
G04 PC Circuitry*
G04 Layer Name PCB_ESP8684-MINI-1_V1.0 - circuitry*
%LPD*%
*
*
G04 PC Custom Flashes*
G04 Layer Name PCB_ESP8684-MINI-1_V1.0 - flashes*
%LPD*%
*
*
G04 PC Circuitry*
G04 Layer Name PCB_ESP8684-MINI-1_V1.0 - circuitry*
%LPD*%
*
G54D10*
G54D24*
G01X1975567Y1582040D02*
G75*
G03X1976110Y1581932I352J351D01*
G01X1975675Y1581497D02*
G03X1975567Y1582040I-459J191D01*
G01X1975824Y1581783*
X1972254Y1597753D02*
Y1585353D01*
X1976204Y1581403*
X1981477Y1600057D02*
G03X1981585Y1600599I-351J351D01*
G01X1982020Y1600164D02*
G03X1981477Y1600057I-191J-459D01*
G01X1981734Y1600313*
X1972254Y1597753D02*
X1974554Y1600053D01*
X1981474*
X1982114Y1600693*
X1977867Y1582040D02*
G03X1978410Y1581932I352J351D01*
G01X1977975Y1581497D02*
G03X1977867Y1582040I-459J191D01*
G01X1978124Y1581783*
X1973504Y1597303D02*
Y1586403D01*
X1978504Y1581403*
X1978654Y1599053D02*
G03X1979065Y1599022I223J223D01*
G01X1978685Y1598642D02*
G03X1978654Y1599053I-254J188D01*
G01X1978824Y1598883*
X1973504Y1597303D02*
X1975254Y1599053D01*
X1978654*
X1979204Y1598503*
X1988022Y1581146D02*
G03X1988382Y1580803I360J17D01*
X1987721Y1580511I-0J-894*
G01X1988021Y1580858D02*
G03X1988382Y1580803I361J1167D01*
G01X2005600Y1584708D02*
G03X2006095Y1584743I232J232D01*
G01X2005924Y1584062D02*
G03X2005600Y1584708I-1136J-166D01*
X2005912Y1584520I530J530*
G01X1987504Y1581003D02*
X1987704Y1580803D01*
X1992004*
X1996504Y1585303*
X2005004*
X2006004Y1584303*
X2006404*
X1986504Y1602053D02*
X1988960D01*
X1986504Y1599597*
Y1602053*
X1985349Y1584648D02*
Y1585855D01*
X1986555Y1584648*
X1985349*
X1986504Y1601845D02*
X1988753D01*
X1986504Y1601395D02*
X1988303D01*
X1986504Y1600945D02*
X1987853D01*
X1986504Y1600495D02*
X1987403D01*
X1986504Y1600045D02*
X1986953D01*
X1985349Y1585097D02*
X1986107D01*
X1985349Y1585547D02*
X1985657D01*
X1968504Y1640157D02*
X2020472D01*
Y1574803*
X1968504*
Y1640157*
G54D55*
X2005291Y1582603D02*
G03X2005291I-1487J0D01*
G01X2002191D02*
G03X2002191I-1487J0D01*
G01X1998891D02*
G03X1998891I-1487J0D01*
G01X1992491Y1583403D02*
G03X1992491I-1487J0D01*
G01X1980991Y1591553D02*
G03X1980991I-1487J0D01*
G01X1978491Y1593403D02*
G03X1978491I-1487J0D01*
G01X1978091Y1596503D02*
G03X1978091I-1487J0D01*
G01X2019272Y1618384D02*
G03X2019221Y1618436I-51J0D01*
G01X1969756*
G03X1969704Y1618384I-0J-52*
G01Y1576055*
G03X1969756Y1576003I52J-0*
G01X2019221*
G03X2019272Y1576055I-0J52*
G01Y1618384*
X2005291Y1582603D02*
G03X2005291I-1487J0D01*
G01X2002191D02*
G03X2002191I-1487J0D01*
G01X1998891D02*
G03X1998891I-1487J0D01*
G01X2005077Y1583631D02*
G03X2007891Y1584303I1327J672D01*
G01X2005077Y1583631D02*
X2005077D01*
X2005072Y1583641D02*
G03X2005077Y1583631I852J421D01*
G01X2005072Y1583641D02*
X2005072D01*
X2004947Y1584005D02*
G03X2005072Y1583641I1457J298D01*
G01X2004947Y1584005D02*
G03X2004934Y1584029I-51J-11D01*
X2004928Y1584036I-146J-133*
G01X2004626Y1584338*
G03X2004589Y1584353I-37J-36*
G01X1996919*
G03X1996882Y1584338I-0J-51*
G01X1992676Y1580131*
X1992004Y1579853D02*
G03X1992676Y1580131I-0J950D01*
G01X1992004Y1579853D02*
X1988466D01*
G03X1988433Y1579842I-0J-51*
G01X1988107Y1579643D02*
G03X1988433Y1579842I-603J1360D01*
G01X1988107Y1579643D02*
X1988103Y1579641D01*
X1986016Y1581003D02*
G03X1988103Y1579641I1488J0D01*
G01X1988774Y1581778D02*
G03X1986016Y1581003I-1270J-775D01*
G01X1988774Y1581778D02*
G03X1988818Y1581753I44J27D01*
G01X1991589*
G03X1991626Y1581768I0J52*
G01X1995832Y1585975*
X1996504Y1586253D02*
G03X1995832Y1585975I-0J-950D01*
G01X1996504Y1586253D02*
X2005004D01*
X2005676Y1585975D02*
G03X2005004Y1586253I-672J-672D01*
G01X2005676Y1585975D02*
X2005913Y1585737D01*
G03X2005965Y1585724I37J37*
G01X2007891Y1584303D02*
G03X2005965Y1585724I-1487J0D01*
G01X1992491Y1583403D02*
G03X1992491I-1487J0D01*
G01X2008251Y1587967D02*
G03X2010391Y1589303I653J1336D01*
G01X2008251Y1587967D02*
G03X2008181Y1587940I-23J-47D01*
G01X2006092Y1587197D02*
G03X2008181Y1587940I712J1306D01*
G01X2006092Y1587197D02*
G03X2006068Y1587203I-24J-45D01*
G01X1992364*
G03X1992327Y1587188I-0J-51*
G01X1988723Y1583584*
X1987804Y1583203D02*
G03X1988723Y1583584I-0J1300D01*
G01X1987804Y1583203D02*
X1985840D01*
G03X1985815Y1583197I0J-51*
G01X1983616Y1584503D02*
G03X1985815Y1583197I1488J0D01*
G01X1983653Y1584830D02*
G03X1983616Y1584503I1451J-327D01*
G01X1983653Y1584830D02*
G03X1983654Y1584841I-51J11D01*
G01Y1588831*
G03X1983639Y1588868I-52J0*
G01X1982229Y1590278*
X1981804Y1591303D02*
G03X1982229Y1590278I1450J0D01*
G01X1981804Y1591303D02*
Y1597053D01*
X1982229Y1598078D02*
G03X1981804Y1597053I1025J-1025D01*
G01X1982229Y1598078D02*
X1985039Y1600889D01*
G03X1985054Y1600925I-37J36*
G01Y1601181*
G03X1985039Y1601218I-52J0*
G01X1983918Y1602338*
G03X1983882Y1602353I-36J-36*
G01X1982254*
X1981229Y1602778D02*
G03X1982254Y1602353I1025J1025D01*
G01X1981229Y1602778D02*
X1978679Y1605328D01*
X1978254Y1606353D02*
G03X1978679Y1605328I1450J0D01*
G01X1978254Y1606353D02*
Y1606665D01*
G03X1978253Y1606677I-52J0*
G01X1978216Y1607003D02*
G03X1978253Y1606677I1488J0D01*
G01X1981052Y1607632D02*
G03X1978216Y1607003I-1348J-629D01*
G01X1981052Y1607632D02*
G03X1981135Y1607617I47J22D01*
G01X1981963Y1608445*
X1982104Y1608503D02*
G03X1981963Y1608445I-0J-200D01*
G01X1982104Y1608503D02*
X1983304D01*
X1983445Y1608445D02*
G03X1983304Y1608503I-141J-142D01*
G01X1983445Y1608445D02*
X1984345Y1607545D01*
X1984404Y1607403D02*
G03X1984345Y1607545I-200J0D01*
G01X1984404Y1607403D02*
Y1606307D01*
G03X1984419Y1606271I52J0*
G01X1984745Y1605945*
X1984804Y1605803D02*
G03X1984745Y1605945I-200J0D01*
G01X1984804Y1605803D02*
Y1605263D01*
G03X1984843Y1605213I52J0*
G01X1985529Y1604828D02*
G03X1984843Y1605213I-1025J-1025D01*
G01X1985529Y1604828D02*
X1987089Y1603268D01*
G03X1987126Y1603253I37J37*
G01X1991693*
G03X1991729Y1603268I-0J52*
G01X1991889Y1603428*
G03X1991904Y1603464I-37J36*
G01Y1608267*
G03X1991898Y1608292I-52J-0*
G01X1991716Y1609003D02*
G03X1991898Y1608292I1488J0D01*
G01X1994691Y1609003D02*
G03X1991716I-1487J0D01*
G01X1994510Y1608292D02*
G03X1994691Y1609003I-1306J711D01*
G01X1994510Y1608292D02*
G03X1994504Y1608267I46J-25D01*
G01Y1603564*
G03X1994519Y1603528I52J0*
G01X1994929Y1603118*
G03X1994965Y1603103I36J37*
G01X1997304*
X1998223Y1602722D02*
G03X1997304Y1603103I-919J-919D01*
G01X1998223Y1602722D02*
X1998803Y1602143D01*
G03X1998824Y1602130I36J36*
G01X1999891Y1600703D02*
G03X1998824Y1602130I-1487J0D01*
G01X1996977Y1600283D02*
G03X1999891Y1600703I1427J420D01*
G01X1996977Y1600283D02*
G03X1996964Y1600304I-49J-15D01*
G01X1996781Y1600488*
G03X1996744Y1600503I-37J-36*
G01X1993858*
G03X1993836Y1600498I0J-51*
G01X1993204Y1600353D02*
G03X1993836Y1600498I-0J1450D01*
G01X1993204Y1600353D02*
X1988625D01*
G03X1988589Y1600338I0J-51*
G01X1987555Y1599305*
X1987554Y1599304*
X1987529Y1599278D02*
G03X1987554Y1599304I-1025J1025D01*
G01X1987529Y1599278D02*
X1984719Y1596468D01*
G03X1984704Y1596431I37J-37*
G01Y1591925*
G03X1984719Y1591889I52J0*
G01X1986129Y1590478*
X1986554Y1589453D02*
G03X1986129Y1590478I-1450J0D01*
G01X1986554Y1589453D02*
Y1586014D01*
G03X1986569Y1585978I52J0*
G01X1986729Y1585818*
G03X1986765Y1585803I36J37*
G01X1987244*
G03X1987281Y1585818I0J52*
G01X1990885Y1589422*
X1991804Y1589803D02*
G03X1990885Y1589422I-0J-1300D01*
G01X1991804Y1589803D02*
X2006068D01*
G03X2006092Y1589809I-0J52*
G01X2007457Y1589840D02*
G03X2006092Y1589809I-653J-1337D01*
G01X2007457Y1589840D02*
G03X2007527Y1589867I22J46D01*
G01X2010391Y1589303D02*
G03X2007527Y1589867I-1487J0D01*
G01X2008350Y1593338D02*
G03X2010091Y1594803I254J1465D01*
G01X2008350Y1593338D02*
G03X2008289Y1593287I-9J-51D01*
Y1593284I52J-0*
G01X2008291Y1593203D02*
G03X2008289Y1593284I-1487J0D01*
G01X2008291Y1593203D02*
X2008291D01*
X2005316D02*
G03X2008291I1488J0D01*
G01X2007058Y1594669D02*
G03X2005316Y1593203I-254J-1466D01*
G01X2007058Y1594669D02*
G03X2007119Y1594720I9J51D01*
Y1594722I-52J-0*
G01X2007116Y1594803D02*
G03X2007119Y1594722I1488J0D01*
G01X2007116Y1594803D02*
X2007116D01*
X2010091D02*
G03X2007116I-1487J0D01*
G01X1980516Y1586203D02*
G03X1983491I1488J0D01*
G01X1980810Y1587090D02*
G03X1980516Y1586203I1194J-887D01*
G01X1980810Y1587090D02*
G03X1980820Y1587121I-42J31D01*
X1980801Y1587161I-52J-0*
G01X1980266Y1588303D02*
G03X1980801Y1587161I1488J0D01*
G01X1983241Y1588303D02*
G03X1980266I-1487J0D01*
G01X1982948Y1587416D02*
G03X1983241Y1588303I-1194J887D01*
G01X1982948Y1587416D02*
G03X1982938Y1587385I41J-31D01*
X1982956Y1587346I51J0*
G01X1983491Y1586203D02*
G03X1982956Y1587346I-1487J0D01*
G01X1981942Y1599216D02*
G03X1983601Y1600693I172J1477D01*
G01X1981942Y1599216D02*
G03X1981912Y1599210I-6J-52D01*
G01X1981474Y1599103D02*
G03X1981912Y1599210I-0J950D01*
G01X1981474Y1599103D02*
X1980642D01*
G03X1980590Y1599052I0J-51*
X1980594Y1599033I52J-0*
G01X1980691Y1598503D02*
G03X1980594Y1599033I-1487J0D01*
G01X1977782Y1598067D02*
G03X1980691Y1598503I1422J436D01*
G01X1977782Y1598067D02*
G03X1977733Y1598103I-49J-15D01*
G01X1975669*
G03X1975632Y1598088I-0J-51*
G01X1974469Y1596925*
G03X1974454Y1596888I37J-37*
G01Y1586818*
G03X1974469Y1586782I52J0*
G01X1978349Y1582901*
G03X1978390Y1582886I37J37*
G01X1979991Y1581403D02*
G03X1978390Y1582886I-1487J0D01*
G01X1977392Y1580415D02*
G03X1979991Y1581403I1112J988D01*
G01X1977392Y1580415D02*
G03X1977315I-38J-35D01*
G01X1974716Y1581403D02*
G03X1977315Y1580415I1488J0D01*
G01X1974716Y1581403D02*
X1974716D01*
X1974721Y1581517D02*
G03X1974716Y1581403I1483J-114D01*
G01X1974721Y1581517D02*
G03Y1581521I-52J4D01*
X1974706Y1581558I-52J0*
G01X1971582Y1584681*
X1971304Y1585353D02*
G03X1971582Y1584681I950J0D01*
G01X1971304Y1585353D02*
Y1597753D01*
X1971582Y1598425D02*
G03X1971304Y1597753I672J-672D01*
G01X1971582Y1598425D02*
X1973882Y1600725D01*
X1974554Y1601003D02*
G03X1973882Y1600725I-0J-950D01*
G01X1974554Y1601003D02*
X1980618D01*
G03X1980668Y1601043I-0J52*
G01X1983601Y1600693D02*
G03X1980668Y1601043I-1487J0D01*
G01X1980991Y1591553D02*
G03X1980991I-1487J0D01*
G01X1978491Y1593403D02*
G03X1978491I-1487J0D01*
G01X1978091Y1596503D02*
G03X1978091I-1487J0D01*
G01X1975637Y1605172D02*
G03X1978091Y1606303I967J1131D01*
G01X1975637Y1605172D02*
G03X1975570I-33J-39D01*
G01X1973116Y1606303D02*
G03X1975570Y1605172I1488J0D01*
G01Y1607434D02*
G03X1973116Y1606303I-966J-1131D01*
G01X1975570Y1607434D02*
G03X1975637I34J39D01*
G01X1978091Y1606303D02*
G03X1975637Y1607434I-1487J0D01*
G01X1969704Y1618122D02*
X2019272D01*
X1969704Y1617762D02*
X2019272D01*
X1969704Y1617402D02*
X2019272D01*
X1969704Y1617042D02*
X2019272D01*
X1969704Y1616682D02*
X2019272D01*
X1969704Y1616322D02*
X2019272D01*
X1969704Y1615962D02*
X2019272D01*
X1969704Y1615602D02*
X2019272D01*
X1969704Y1615242D02*
X2019272D01*
X1969704Y1614882D02*
X2019272D01*
X1969704Y1614522D02*
X2019272D01*
X1969704Y1614162D02*
X2019272D01*
X1969704Y1613802D02*
X2019272D01*
X1969704Y1613442D02*
X2019272D01*
X1969704Y1613082D02*
X2019272D01*
X1969704Y1612722D02*
X2019272D01*
X1969704Y1612362D02*
X2019272D01*
X1969704Y1612002D02*
X2019272D01*
X1969704Y1611642D02*
X2019272D01*
X1969704Y1611282D02*
X2019272D01*
X1969704Y1610922D02*
X2019272D01*
X1969704Y1610562D02*
X2019272D01*
X1994085Y1610202D02*
X2019272D01*
X1994432Y1609842D02*
X2019272D01*
X1994612Y1609482D02*
X2019272D01*
X1994687Y1609122D02*
X2019272D01*
X1994672Y1608762D02*
X2019272D01*
X1994565Y1608402D02*
X2019272D01*
X1994504Y1608042D02*
X2019272D01*
X1994504Y1607682D02*
X2019272D01*
X1994504Y1607322D02*
X2019272D01*
X1994504Y1606962D02*
X2019272D01*
X1994504Y1606602D02*
X2019272D01*
X1994504Y1606242D02*
X2019272D01*
X1994504Y1605882D02*
X2019272D01*
X1994504Y1605522D02*
X2019272D01*
X1994504Y1605162D02*
X2019272D01*
X1994504Y1604802D02*
X2019272D01*
X1994504Y1604442D02*
X2019272D01*
X1994504Y1604082D02*
X2019272D01*
X1994504Y1603722D02*
X2019272D01*
X1994685Y1603362D02*
X2019272D01*
X1997807Y1603002D02*
X2019272D01*
X1998304Y1602642D02*
X2019272D01*
X1998664Y1602282D02*
X2019272D01*
X1999257Y1601922D02*
X2019272D01*
X1999619Y1601562D02*
X2019272D01*
X1999805Y1601202D02*
X2019272D01*
X1999885Y1600842D02*
X2019272D01*
X1999875Y1600482D02*
X2019272D01*
X1999773Y1600122D02*
X2019272D01*
X1999556Y1599762D02*
X2019272D01*
X1999125Y1599402D02*
X2019272D01*
X1987293Y1599042D02*
X2019272D01*
X1986933Y1598682D02*
X2019272D01*
X1986573Y1598322D02*
X2019272D01*
X1986213Y1597962D02*
X2019272D01*
X1985853Y1597602D02*
X2019272D01*
X1985493Y1597242D02*
X2019272D01*
X1985133Y1596882D02*
X2019272D01*
X1984773Y1596522D02*
X2019272D01*
X2009209Y1596162D02*
X2019272D01*
X2009706Y1595802D02*
X2019272D01*
X2009947Y1595442D02*
X2019272D01*
X2010065Y1595082D02*
X2019272D01*
X2010089Y1594722D02*
X2019272D01*
X2010024Y1594362D02*
X2019272D01*
X2009857Y1594002D02*
X2019272D01*
X2009534Y1593642D02*
X2019272D01*
X2008289Y1593282D02*
X2019272D01*
X2008265Y1592922D02*
X2019272D01*
X2008146Y1592562D02*
X2019272D01*
X2007904Y1592202D02*
X2019272D01*
X2007404Y1591842D02*
X2019272D01*
X1985126Y1591482D02*
X2019272D01*
X1985486Y1591122D02*
X2019272D01*
X2009195Y1590762D02*
X2019272D01*
X2009907Y1590402D02*
X2019272D01*
X2010195Y1590042D02*
X2019272D01*
X2010342Y1589682D02*
X2019272D01*
X2010391Y1589322D02*
X2019272D01*
X2010352Y1588962D02*
X2019272D01*
X2010216Y1588602D02*
X2019272D01*
X2009946Y1588242D02*
X2019272D01*
X2009343Y1587882D02*
X2019272D01*
X2007922Y1587522D02*
X2019272D01*
X2007447Y1587162D02*
X2019272D01*
X1991941Y1586802D02*
X2019272D01*
X1991581Y1586442D02*
X2019272D01*
X2005548Y1586082D02*
X2019272D01*
X2006851Y1585722D02*
X2019272D01*
X2007449Y1585362D02*
X2019272D01*
X2007717Y1585002D02*
X2019272D01*
X2007852Y1584642D02*
X2019272D01*
X2007891Y1584282D02*
X2019272D01*
X2007842Y1583922D02*
X2019272D01*
X2007694Y1583562D02*
X2019272D01*
X2007404Y1583202D02*
X2019272D01*
X2006682Y1582842D02*
X2019272D01*
X2005287Y1582482D02*
X2019272D01*
X2005211Y1582122D02*
X2019272D01*
X2005031Y1581762D02*
X2019272D01*
X2004681Y1581402D02*
X2019272D01*
X1993586Y1581042D02*
X2019272D01*
X1993226Y1580682D02*
X2019272D01*
X1992866Y1580322D02*
X2019272D01*
X1992445Y1579962D02*
X2019272D01*
X1988003Y1579602D02*
X2019272D01*
X1969704Y1579242D02*
X2019272D01*
X1969704Y1578882D02*
X2019272D01*
X1969704Y1578522D02*
X2019272D01*
X1969704Y1578162D02*
X2019272D01*
X1969704Y1577802D02*
X2019272D01*
X1969704Y1577442D02*
X2019272D01*
X1969704Y1577082D02*
X2019272D01*
X1969704Y1576722D02*
X2019272D01*
X1969704Y1576362D02*
X2019272D01*
X1985846Y1590762D02*
X2008613D01*
X2008156Y1587882D02*
X2008465D01*
X1984704Y1596162D02*
X2007998D01*
X1986201Y1590402D02*
X2007901D01*
X1986429Y1590042D02*
X2007613D01*
X1984704Y1595802D02*
X2007502D01*
X1984704Y1595442D02*
X2007261D01*
X1984704Y1595082D02*
X2007143D01*
X1984704Y1594722D02*
X2007119D01*
X1984766Y1591842D02*
X2006204D01*
X1992301Y1587162D02*
X2006161D01*
X2005272Y1582842D02*
X2006126D01*
X1984704Y1594362D02*
X2005871D01*
X1984704Y1592202D02*
X2005704D01*
X1984704Y1594002D02*
X2005549D01*
X1984704Y1592562D02*
X2005462D01*
X2005166Y1583202D02*
X2005404D01*
X1984704Y1593642D02*
X2005383D01*
X1984704Y1592922D02*
X2005343D01*
X1984704Y1593282D02*
X2005319D01*
X2004941Y1583562D02*
X2005114D01*
X2004492Y1583922D02*
X2004966D01*
X1996826Y1584282D02*
X2004682D01*
X2001392Y1583922D02*
X2003116D01*
X2001581Y1581402D02*
X2002927D01*
X2001841Y1583562D02*
X2002667D01*
X2001931Y1581762D02*
X2002577D01*
X2002066Y1583202D02*
X2002442D01*
X2002111Y1582122D02*
X2002396D01*
X2002172Y1582842D02*
X2002336D01*
X2002187Y1582482D02*
X2002321D01*
X1998092Y1583922D02*
X2000016D01*
X1998281Y1581402D02*
X1999827D01*
X1998541Y1583562D02*
X1999567D01*
X1998631Y1581762D02*
X1999477D01*
X1998766Y1583202D02*
X1999342D01*
X1998811Y1582122D02*
X1999296D01*
X1998872Y1582842D02*
X1999236D01*
X1998887Y1582482D02*
X1999221D01*
X1987653Y1599402D02*
X1997683D01*
X1988013Y1599762D02*
X1997252D01*
X1988373Y1600122D02*
X1997035D01*
X1993801Y1600482D02*
X1996787D01*
X1996466Y1583922D02*
X1996716D01*
X1993946Y1581402D02*
X1996527D01*
X1996106Y1583562D02*
X1996267D01*
X1994306Y1581762D02*
X1996177D01*
X1995746Y1583202D02*
X1996042D01*
X1994666Y1582122D02*
X1995996D01*
X1991221Y1586082D02*
X1995960D01*
X1995386Y1582842D02*
X1995936D01*
X1995026Y1582482D02*
X1995921D01*
X1990861Y1585722D02*
X1995579D01*
X1990501Y1585362D02*
X1995219D01*
X1990141Y1585002D02*
X1994859D01*
X1991828Y1584642D02*
X1994499D01*
X1992204Y1584282D02*
X1994139D01*
X1992398Y1583922D02*
X1993779D01*
X1992483Y1583562D02*
X1993419D01*
X1992478Y1583202D02*
X1993059D01*
X1992381Y1582842D02*
X1992699D01*
X1992172Y1582482D02*
X1992339D01*
X1969704Y1610202D02*
X1992323D01*
X1991760Y1582122D02*
X1991979D01*
X1969704Y1609842D02*
X1991975D01*
X1983848Y1608042D02*
X1991904D01*
X1984208Y1607682D02*
X1991904D01*
X1984404Y1607322D02*
X1991904D01*
X1984404Y1606962D02*
X1991904D01*
X1984404Y1606602D02*
X1991904D01*
X1984448Y1606242D02*
X1991904D01*
X1984788Y1605882D02*
X1991904D01*
X1984804Y1605522D02*
X1991904D01*
X1985010Y1605162D02*
X1991904D01*
X1985556Y1604802D02*
X1991904D01*
X1985916Y1604442D02*
X1991904D01*
X1986276Y1604082D02*
X1991904D01*
X1986636Y1603722D02*
X1991904D01*
X1983488Y1608402D02*
X1991843D01*
X1986996Y1603362D02*
X1991823D01*
X1969704Y1609482D02*
X1991796D01*
X1969704Y1608762D02*
X1991736D01*
X1969704Y1609122D02*
X1991721D01*
X1988789Y1581762D02*
X1991618D01*
X1986536Y1589682D02*
X1991256D01*
X1986554Y1589322D02*
X1990784D01*
X1986554Y1588962D02*
X1990424D01*
X1988484Y1582122D02*
X1990248D01*
X1989781Y1584642D02*
X1990180D01*
X1986554Y1588602D02*
X1990064D01*
X1987666Y1582482D02*
X1989836D01*
X1989421Y1584282D02*
X1989804D01*
X1986554Y1588242D02*
X1989704D01*
X1978882Y1582842D02*
X1989626D01*
X1989061Y1583922D02*
X1989610D01*
X1985829Y1583202D02*
X1989530D01*
X1988701Y1583562D02*
X1989525D01*
X1986554Y1587882D02*
X1989344D01*
X1986554Y1587522D02*
X1988984D01*
X1986554Y1587162D02*
X1988624D01*
X1986554Y1586802D02*
X1988264D01*
X1986554Y1586442D02*
X1987904D01*
X1986554Y1586082D02*
X1987544D01*
X1979528Y1582482D02*
X1987342D01*
X1969704Y1579602D02*
X1987005D01*
X1979806Y1582122D02*
X1986524D01*
X1978872Y1579962D02*
X1986442D01*
X1979948Y1581762D02*
X1986224D01*
X1979525Y1580322D02*
X1986182D01*
X1979991Y1581402D02*
X1986071D01*
X1979805Y1580682D02*
X1986052D01*
X1979947Y1581042D02*
X1986017D01*
X1983512Y1601202D02*
X1985050D01*
X1983594Y1600842D02*
X1984992D01*
X1983321Y1601562D02*
X1984695D01*
X1983586Y1600482D02*
X1984632D01*
X1978049Y1583202D02*
X1984383D01*
X1982952Y1601922D02*
X1984335D01*
X1983487Y1600122D02*
X1984272D01*
X1969704Y1602282D02*
X1983975D01*
X1977689Y1583562D02*
X1983952D01*
X1983274Y1599762D02*
X1983912D01*
X1977329Y1583922D02*
X1983735D01*
X1983211Y1588602D02*
X1983654D01*
X1983240Y1588242D02*
X1983654D01*
X1983181Y1587882D02*
X1983654D01*
X1983020Y1587522D02*
X1983654D01*
X1983141Y1587162D02*
X1983654D01*
X1983366Y1586802D02*
X1983654D01*
X1983472Y1586442D02*
X1983654D01*
X1983487Y1586082D02*
X1983654D01*
X1983411Y1585722D02*
X1983654D01*
X1983231Y1585362D02*
X1983654D01*
X1982881Y1585002D02*
X1983654D01*
X1976969Y1584282D02*
X1983633D01*
X1976609Y1584642D02*
X1983623D01*
X1982852Y1599402D02*
X1983552D01*
X1983088Y1588962D02*
X1983545D01*
X1980591Y1599042D02*
X1983192D01*
X1982838Y1589322D02*
X1983185D01*
X1980681Y1598682D02*
X1982832D01*
X1982312Y1589682D02*
X1982825D01*
X1980680Y1598322D02*
X1982472D01*
X1974454Y1590042D02*
X1982465D01*
X1980589Y1597962D02*
X1982124D01*
X1980446Y1590402D02*
X1982118D01*
X1980210Y1608402D02*
X1981920D01*
X1980387Y1597602D02*
X1981912D01*
X1980764Y1590762D02*
X1981909D01*
X1979993Y1597242D02*
X1981816D01*
X1980928Y1591122D02*
X1981815D01*
X1978042Y1596882D02*
X1981804D01*
X1978091Y1596522D02*
X1981804D01*
X1978052Y1596162D02*
X1981804D01*
X1977916Y1595802D02*
X1981804D01*
X1977646Y1595442D02*
X1981804D01*
X1977043Y1595082D02*
X1981804D01*
X1977692Y1594722D02*
X1981804D01*
X1978141Y1594362D02*
X1981804D01*
X1978366Y1594002D02*
X1981804D01*
X1978472Y1593642D02*
X1981804D01*
X1978487Y1593282D02*
X1981804D01*
X1980086Y1592922D02*
X1981804D01*
X1980597Y1592562D02*
X1981804D01*
X1980843Y1592202D02*
X1981804D01*
X1980963Y1591842D02*
X1981804D01*
X1980990Y1591482D02*
X1981804D01*
X1980769Y1608042D02*
X1981560D01*
X1969704Y1602642D02*
X1981386D01*
X1969704Y1601922D02*
X1981275D01*
X1981028Y1607682D02*
X1981200D01*
X1974454Y1589682D02*
X1981195D01*
X1976249Y1585002D02*
X1981127D01*
X1969704Y1603002D02*
X1981005D01*
X1969704Y1601562D02*
X1980906D01*
X1974454Y1587162D02*
X1980800D01*
X1975889Y1585362D02*
X1980777D01*
X1969704Y1601202D02*
X1980716D01*
X1974454Y1589322D02*
X1980670D01*
X1969704Y1603362D02*
X1980645D01*
X1974457Y1586802D02*
X1980642D01*
X1975529Y1585722D02*
X1980596D01*
X1974809Y1586442D02*
X1980536D01*
X1975169Y1586082D02*
X1980521D01*
X1974454Y1587522D02*
X1980488D01*
X1974454Y1588962D02*
X1980420D01*
X1974454Y1587882D02*
X1980327D01*
X1974454Y1588602D02*
X1980297D01*
X1969704Y1603722D02*
X1980285D01*
X1974454Y1588242D02*
X1980268D01*
X1969704Y1604082D02*
X1979925D01*
X1969704Y1604442D02*
X1979565D01*
X1969704Y1604802D02*
X1979205D01*
X1969704Y1608402D02*
X1979198D01*
X1978411Y1592922D02*
X1978921D01*
X1977558Y1605162D02*
X1978845D01*
X1969704Y1608042D02*
X1978639D01*
X1974454Y1590402D02*
X1978562D01*
X1977870Y1605522D02*
X1978516D01*
X1977895Y1597242D02*
X1978415D01*
X1978231Y1592562D02*
X1978411D01*
X1977162Y1607682D02*
X1978380D01*
X1978031Y1605882D02*
X1978333D01*
X1978090Y1606242D02*
X1978258D01*
X1978061Y1606602D02*
X1978254D01*
X1977688Y1607322D02*
X1978251D01*
X1974454Y1590762D02*
X1978244D01*
X1977938Y1606962D02*
X1978217D01*
X1977881Y1592202D02*
X1978165D01*
X1976572Y1579962D02*
X1978136D01*
X1974454Y1591122D02*
X1978080D01*
X1974454Y1591842D02*
X1978045D01*
X1977607Y1597602D02*
X1978021D01*
X1974454Y1591482D02*
X1978018D01*
X1976895Y1597962D02*
X1977818D01*
X1977225Y1580322D02*
X1977482D01*
X1974454Y1594722D02*
X1976316D01*
X1975506Y1597962D02*
X1976313D01*
X1974454Y1595082D02*
X1976165D01*
X1974454Y1592202D02*
X1976127D01*
X1975162Y1607682D02*
X1976045D01*
X1974454Y1594362D02*
X1975867D01*
X1969704Y1579962D02*
X1975836D01*
X1974454Y1592562D02*
X1975777D01*
X1975558Y1605162D02*
X1975650D01*
X1974454Y1594002D02*
X1975642D01*
X1975146Y1597602D02*
X1975601D01*
X1974454Y1592922D02*
X1975596D01*
X1974454Y1595442D02*
X1975562D01*
X1974454Y1593642D02*
X1975536D01*
X1974454Y1593282D02*
X1975521D01*
X1974786Y1597242D02*
X1975313D01*
X1974454Y1595802D02*
X1975292D01*
X1969704Y1580322D02*
X1975182D01*
X1974454Y1596882D02*
X1975165D01*
X1974454Y1596162D02*
X1975156D01*
X1974454Y1596522D02*
X1975117D01*
X1969704Y1580682D02*
X1974903D01*
X1969704Y1581042D02*
X1974761D01*
X1969704Y1581402D02*
X1974716D01*
X1969704Y1581762D02*
X1974502D01*
X1969704Y1582122D02*
X1974142D01*
X1969704Y1607682D02*
X1974045D01*
X1969704Y1600842D02*
X1974024D01*
X1969704Y1582482D02*
X1973782D01*
X1969704Y1605162D02*
X1973650D01*
X1969704Y1600482D02*
X1973639D01*
X1969704Y1607322D02*
X1973520D01*
X1969704Y1582842D02*
X1973422D01*
X1969704Y1605522D02*
X1973338D01*
X1969704Y1600122D02*
X1973279D01*
X1969704Y1606962D02*
X1973270D01*
X1969704Y1605882D02*
X1973177D01*
X1969704Y1606602D02*
X1973147D01*
X1969704Y1606242D02*
X1973118D01*
X1969704Y1583202D02*
X1973062D01*
X1969704Y1599762D02*
X1972919D01*
X1969704Y1583562D02*
X1972702D01*
X1969704Y1599402D02*
X1972559D01*
X1969704Y1583922D02*
X1972342D01*
X1969704Y1599042D02*
X1972199D01*
X1969704Y1584282D02*
X1971982D01*
X1969704Y1598682D02*
X1971839D01*
X1969704Y1584642D02*
X1971622D01*
X1969704Y1598322D02*
X1971493D01*
X1969704Y1585002D02*
X1971371D01*
X1969704Y1597962D02*
X1971327D01*
X1969704Y1597602D02*
X1971304D01*
X1969704Y1597242D02*
X1971304D01*
X1969704Y1596882D02*
X1971304D01*
X1969704Y1596522D02*
X1971304D01*
X1969704Y1596162D02*
X1971304D01*
X1969704Y1595802D02*
X1971304D01*
X1969704Y1595442D02*
X1971304D01*
X1969704Y1595082D02*
X1971304D01*
X1969704Y1594722D02*
X1971304D01*
X1969704Y1594362D02*
X1971304D01*
X1969704Y1594002D02*
X1971304D01*
X1969704Y1593642D02*
X1971304D01*
X1969704Y1593282D02*
X1971304D01*
X1969704Y1592922D02*
X1971304D01*
X1969704Y1592562D02*
X1971304D01*
X1969704Y1592202D02*
X1971304D01*
X1969704Y1591842D02*
X1971304D01*
X1969704Y1591482D02*
X1971304D01*
X1969704Y1591122D02*
X1971304D01*
X1969704Y1590762D02*
X1971304D01*
X1969704Y1590402D02*
X1971304D01*
X1969704Y1590042D02*
X1971304D01*
X1969704Y1589682D02*
X1971304D01*
X1969704Y1589322D02*
X1971304D01*
X1969704Y1588962D02*
X1971304D01*
X1969704Y1588602D02*
X1971304D01*
X1969704Y1588242D02*
X1971304D01*
X1969704Y1587882D02*
X1971304D01*
X1969704Y1587522D02*
X1971304D01*
X1969704Y1587162D02*
X1971304D01*
X1969704Y1586802D02*
X1971304D01*
X1969704Y1586442D02*
X1971304D01*
X1969704Y1586082D02*
X1971304D01*
X1969704Y1585722D02*
X1971304D01*
X1969704Y1585362D02*
X1971304D01*
G54D56*
X1985104Y1584503D02*
X1987804D01*
X1991804Y1588503*
X2006804*
X1993204Y1609003D02*
Y1601803D01*
X1997304*
X1998404Y1600703*
G54D60*
X1983254Y1591303D02*
Y1597053D01*
X1986504Y1600303*
Y1601803*
X1983254Y1591303D02*
X1985104Y1589453D01*
Y1584503*
X1979704Y1607003D02*
Y1606353D01*
X1982254Y1603803*
X1984504*
X1986504Y1601803*
X1993204*
G54D204*
X1993254Y1603525D02*
X1994528Y1602250D01*
X1991980*
X1993254Y1603525*
X1992333Y1602603D02*
X1994175D01*
X1992687Y1602958D02*
X1993820D01*
X1993042Y1603313D02*
X1993466D01*
G54D269*
X1984872Y1637932D03*
Y1626514D03*
X1993143Y1626534D03*
X1993127Y1637932D03*
X2001375D03*
Y1626515D03*
X2009623D03*
Y1637932D03*
X2017871D03*
Y1622460D03*
G54D310*
X1982004Y1586203D03*
X1977004Y1593403D03*
X1981754Y1588303D03*
X1976204Y1581403D03*
X1985104Y1584503D03*
X1976604Y1596503D03*
X1979504Y1591553D03*
X1982114Y1600693D03*
X1979504Y1601603D03*
X1979304Y1588303D03*
X1975304Y1592103D03*
X1979204Y1598503D03*
X1978504Y1581403D03*
X1979304Y1612703D03*
X1979704Y1607003D03*
X1977604Y1601603D03*
X1974604Y1606303D03*
X1976604D03*
X1982904Y1609103D03*
X1974104Y1581203D03*
X1981204Y1610103D03*
X1985954Y1595003D03*
X1979504Y1594903D03*
X1978204Y1610903D03*
X1980704Y1582503D03*
X1977604Y1585103D03*
X1975704Y1588603D03*
X1982704Y1606803D03*
X2003804Y1582603D03*
X2000704D03*
X1997404D03*
X1990404Y1590553D03*
X1991004Y1583403D03*
X2006404Y1584303D03*
X1990404Y1599453D03*
X2006804Y1588503D03*
X2004804Y1613103D03*
X1993204Y1609003D03*
X2008604Y1594803D03*
X2010604Y1611303D03*
X1986404Y1613103D03*
X1994504Y1613003D03*
X1987504Y1581003D03*
X2002704Y1613003D03*
X1997804Y1609803D03*
X1999304Y1612403D03*
X1990604Y1605403D03*
X2008804Y1613003D03*
X2006804Y1593203D03*
X1998404Y1600703D03*
X2012304Y1609603D03*
X2014004Y1608003D03*
X1988304Y1612203D03*
X1994854Y1595003D03*
X2008904Y1589303D03*
X1998304Y1606803D03*
X1995604Y1610703D03*
X1993104Y1611203D03*
X2013804Y1592903D03*
X2013404Y1612803D03*
X2002104Y1592903D03*
X2010304Y1585103D03*
X1992634Y1592773D03*
X2011104Y1596703D03*
X1990704Y1611903D03*
X1990904Y1609103D03*
X2008804Y1597003D03*
X2006404Y1597203D03*
X1997104Y1613103D03*
X2006204Y1586503D03*
X2008204Y1591603D03*
X2013904Y1586203D03*
X2014104Y1602503D03*
X2011904Y1589503D03*
X2010004Y1581603D03*
X2003104Y1600703D03*
X1988174Y1592773D03*
X1988184Y1597233D03*
X1990404Y1595003D03*
X1992634Y1597233D03*
X2014204Y1581303D03*
X1973604Y1615803D03*
Y1617703D03*
X1983465Y1617717D03*
X2005512D03*
X1996063D03*
X2015404Y1615803D03*
X1986614Y1617717D03*
X2015355D03*
G74*
X0Y0D02*
M02*
