*
*
G04 PADS VX.2 Build Number: 5060570 generated Gerber (RS-274-X) file*
G04 PC Version=2.1*
*
%IN "PCB_ESP8684-MINI-1_V1.0"*%
*
%MOIN*%
*
%FSLAX35Y35*%
*
*
*
*
G04 PC Standard Apertures*
*
*
G04 Thermal Relief Aperture macro.*
%AMTER*
1,1,$1,0,0*
1,0,$1-$2,0,0*
21,0,$3,$4,0,0,45*
21,0,$3,$4,0,0,135*
%
*
*
G04 Annular Aperture macro.*
%AMANN*
1,1,$1,0,0*
1,0,$2,0,0*
%
*
*
G04 Odd Aperture macro.*
%AMODD*
1,1,$1,0,0*
1,0,$1-0.005,0,0*
%
*
*
G04 PC Custom Aperture Macros*
*
*
*
*
*
*
G04 PC Aperture Table*
*
%ADD010C,0.001*%
%ADD012C,0.01*%
%ADD024C,0.005*%
*
*
*
*
G04 PC Circuitry*
G04 Layer Name PCB_ESP8684-MINI-1_V1.0 - circuitry*
%LPD*%
*
*
G04 PC Custom Flashes*
G04 Layer Name PCB_ESP8684-MINI-1_V1.0 - flashes*
%LPD*%
*
*
G04 PC Circuitry*
G04 Layer Name PCB_ESP8684-MINI-1_V1.0 - circuitry*
%LPD*%
*
G54D10*
G54D12*
G01X1980872Y1633932D02*
X1988872Y1641932D01*
X1980872D02*
X1988872Y1633932D01*
X1980872Y1622514D02*
X1988872Y1630514D01*
X1980872D02*
X1988872Y1622514D01*
X1989143Y1622534D02*
X1997143Y1630534D01*
X1989143D02*
X1997143Y1622534D01*
X1989127Y1633932D02*
X1997127Y1641932D01*
X1989127D02*
X1997127Y1633932D01*
X1997375D02*
X2005375Y1641932D01*
X1997375D02*
X2005375Y1633932D01*
X1997375Y1622515D02*
X2005375Y1630515D01*
X1997375D02*
X2005375Y1622515D01*
X2005623D02*
X2013623Y1630515D01*
X2005623D02*
X2013623Y1622515D01*
X2005623Y1633932D02*
X2013623Y1641932D01*
X2005623D02*
X2013623Y1633932D01*
X2013871D02*
X2021871Y1641932D01*
X2013871D02*
X2021871Y1633932D01*
X2013871Y1618460D02*
X2021871Y1626460D01*
X2013871D02*
X2021871Y1618460D01*
X1978004Y1586203D02*
X1986004D01*
X1982004Y1582203D02*
Y1590203D01*
X1973004Y1593403D02*
X1981004D01*
X1977004Y1589403D02*
Y1597403D01*
X1977754Y1588303D02*
X1985754D01*
X1981754Y1584303D02*
Y1592303D01*
X1972204Y1581403D02*
X1980204D01*
X1976204Y1577403D02*
Y1585403D01*
X1981104Y1584503D02*
X1989104D01*
X1985104Y1580503D02*
Y1588503D01*
X1972604Y1596503D02*
X1980604D01*
X1976604Y1592503D02*
Y1600503D01*
X1975504Y1591553D02*
X1983504D01*
X1979504Y1587553D02*
Y1595553D01*
X1978114Y1600693D02*
X1986114D01*
X1982114Y1596693D02*
Y1604693D01*
X1975504Y1601603D02*
X1983504D01*
X1979504Y1597603D02*
Y1605603D01*
X1975304Y1588303D02*
X1983304D01*
X1979304Y1584303D02*
Y1592303D01*
X1971304Y1592103D02*
X1979304D01*
X1975304Y1588103D02*
Y1596103D01*
X1975204Y1598503D02*
X1983204D01*
X1979204Y1594503D02*
Y1602503D01*
X1974504Y1581403D02*
X1982504D01*
X1978504Y1577403D02*
Y1585403D01*
X1975304Y1612703D02*
X1983304D01*
X1979304Y1608703D02*
Y1616703D01*
X1975704Y1607003D02*
X1983704D01*
X1979704Y1603003D02*
Y1611003D01*
X1973604Y1601603D02*
X1981604D01*
X1977604Y1597603D02*
Y1605603D01*
X1970604Y1606303D02*
X1978604D01*
X1974604Y1602303D02*
Y1610303D01*
X1972604Y1606303D02*
X1980604D01*
X1976604Y1602303D02*
Y1610303D01*
X1978904Y1609103D02*
X1986904D01*
X1982904Y1605103D02*
Y1613103D01*
X1970104Y1581203D02*
X1978104D01*
X1974104Y1577203D02*
Y1585203D01*
X1977204Y1610103D02*
X1985204D01*
X1981204Y1606103D02*
Y1614103D01*
X1981954Y1595003D02*
X1989954D01*
X1985954Y1591003D02*
Y1599003D01*
X1975504Y1594903D02*
X1983504D01*
X1979504Y1590903D02*
Y1598903D01*
X1974204Y1610903D02*
X1982204D01*
X1978204Y1606903D02*
Y1614903D01*
X1976704Y1582503D02*
X1984704D01*
X1980704Y1578503D02*
Y1586503D01*
X1973604Y1585103D02*
X1981604D01*
X1977604Y1581103D02*
Y1589103D01*
X1971704Y1588603D02*
X1979704D01*
X1975704Y1584603D02*
Y1592603D01*
X1978704Y1606803D02*
X1986704D01*
X1982704Y1602803D02*
Y1610803D01*
X1999804Y1582603D02*
X2007804D01*
X2003804Y1578603D02*
Y1586603D01*
X1996704Y1582603D02*
X2004704D01*
X2000704Y1578603D02*
Y1586603D01*
X1993404Y1582603D02*
X2001404D01*
X1997404Y1578603D02*
Y1586603D01*
X1986404Y1590553D02*
X1994404D01*
X1990404Y1586553D02*
Y1594553D01*
X1987004Y1583403D02*
X1995004D01*
X1991004Y1579403D02*
Y1587403D01*
X2002404Y1584303D02*
X2010404D01*
X2006404Y1580303D02*
Y1588303D01*
X1986404Y1599453D02*
X1994404D01*
X1990404Y1595453D02*
Y1603453D01*
X2002804Y1588503D02*
X2010804D01*
X2006804Y1584503D02*
Y1592503D01*
X2000804Y1613103D02*
X2008804D01*
X2004804Y1609103D02*
Y1617103D01*
X1989204Y1609003D02*
X1997204D01*
X1993204Y1605003D02*
Y1613003D01*
X2004604Y1594803D02*
X2012604D01*
X2008604Y1590803D02*
Y1598803D01*
X2006604Y1611303D02*
X2014604D01*
X2010604Y1607303D02*
Y1615303D01*
X1982404Y1613103D02*
X1990404D01*
X1986404Y1609103D02*
Y1617103D01*
X1990504Y1613003D02*
X1998504D01*
X1994504Y1609003D02*
Y1617003D01*
X1983504Y1581003D02*
X1991504D01*
X1987504Y1577003D02*
Y1585003D01*
X1998704Y1613003D02*
X2006704D01*
X2002704Y1609003D02*
Y1617003D01*
X1993804Y1609803D02*
X2001804D01*
X1997804Y1605803D02*
Y1613803D01*
X1995304Y1612403D02*
X2003304D01*
X1999304Y1608403D02*
Y1616403D01*
X1986604Y1605403D02*
X1994604D01*
X1990604Y1601403D02*
Y1609403D01*
X2004804Y1613003D02*
X2012804D01*
X2008804Y1609003D02*
Y1617003D01*
X2002804Y1593203D02*
X2010804D01*
X2006804Y1589203D02*
Y1597203D01*
X1994404Y1600703D02*
X2002404D01*
X1998404Y1596703D02*
Y1604703D01*
X2008304Y1609603D02*
X2016304D01*
X2012304Y1605603D02*
Y1613603D01*
X2010004Y1608003D02*
X2018004D01*
X2014004Y1604003D02*
Y1612003D01*
X1984304Y1612203D02*
X1992304D01*
X1988304Y1608203D02*
Y1616203D01*
X1990854Y1595003D02*
X1998854D01*
X1994854Y1591003D02*
Y1599003D01*
X2004904Y1589303D02*
X2012904D01*
X2008904Y1585303D02*
Y1593303D01*
X1994304Y1606803D02*
X2002304D01*
X1998304Y1602803D02*
Y1610803D01*
X1991604Y1610703D02*
X1999604D01*
X1995604Y1606703D02*
Y1614703D01*
X1989104Y1611203D02*
X1997104D01*
X1993104Y1607203D02*
Y1615203D01*
X2009804Y1592903D02*
X2017804D01*
X2013804Y1588903D02*
Y1596903D01*
X2009404Y1612803D02*
X2017404D01*
X2013404Y1608803D02*
Y1616803D01*
X1998104Y1592903D02*
X2006104D01*
X2002104Y1588903D02*
Y1596903D01*
X2006304Y1585103D02*
X2014304D01*
X2010304Y1581103D02*
Y1589103D01*
X1988634Y1592773D02*
X1996634D01*
X1992634Y1588773D02*
Y1596773D01*
X2007104Y1596703D02*
X2015104D01*
X2011104Y1592703D02*
Y1600703D01*
X1986704Y1611903D02*
X1994704D01*
X1990704Y1607903D02*
Y1615903D01*
X1986904Y1609103D02*
X1994904D01*
X1990904Y1605103D02*
Y1613103D01*
X2004804Y1597003D02*
X2012804D01*
X2008804Y1593003D02*
Y1601003D01*
X2002404Y1597203D02*
X2010404D01*
X2006404Y1593203D02*
Y1601203D01*
X1993104Y1613103D02*
X2001104D01*
X1997104Y1609103D02*
Y1617103D01*
X2002204Y1586503D02*
X2010204D01*
X2006204Y1582503D02*
Y1590503D01*
X2004204Y1591603D02*
X2012204D01*
X2008204Y1587603D02*
Y1595603D01*
X2009904Y1586203D02*
X2017904D01*
X2013904Y1582203D02*
Y1590203D01*
X2010104Y1602503D02*
X2018104D01*
X2014104Y1598503D02*
Y1606503D01*
X2007904Y1589503D02*
X2015904D01*
X2011904Y1585503D02*
Y1593503D01*
X2006004Y1581603D02*
X2014004D01*
X2010004Y1577603D02*
Y1585603D01*
X1999104Y1600703D02*
X2007104D01*
X2003104Y1596703D02*
Y1604703D01*
X1984174Y1592773D02*
X1992174D01*
X1988174Y1588773D02*
Y1596773D01*
X1984184Y1597233D02*
X1992184D01*
X1988184Y1593233D02*
Y1601233D01*
X1986404Y1595003D02*
X1994404D01*
X1990404Y1591003D02*
Y1599003D01*
X1988634Y1597233D02*
X1996634D01*
X1992634Y1593233D02*
Y1601233D01*
X2010204Y1581303D02*
X2018204D01*
X2014204Y1577303D02*
Y1585303D01*
X1969604Y1615803D02*
X1977604D01*
X1973604Y1611803D02*
Y1619803D01*
X1969604Y1617703D02*
X1977604D01*
X1973604Y1613703D02*
Y1621703D01*
X1979465Y1617717D02*
X1987465D01*
X1983465Y1613717D02*
Y1621717D01*
X2001512Y1617717D02*
X2009512D01*
X2005512Y1613717D02*
Y1621717D01*
X1992063Y1617717D02*
X2000063D01*
X1996063Y1613717D02*
Y1621717D01*
X2011404Y1615803D02*
X2019404D01*
X2015404Y1611803D02*
Y1619803D01*
X1982614Y1617717D02*
X1990614D01*
X1986614Y1613717D02*
Y1621717D01*
X2011355Y1617717D02*
X2019355D01*
X2015355Y1613717D02*
Y1621717D01*
X2068504Y1646803D02*
X2326504D01*
X2068504Y1622803D02*
X2326504D01*
X2068504Y1598803D02*
X2326504D01*
X2068504Y1574803D02*
X2326504D01*
X2068504Y1646803D02*
Y1574803D01*
X2152504Y1646803D02*
Y1574803D01*
X2188504Y1646803D02*
Y1574803D01*
X2224504Y1646803D02*
Y1574803D01*
X2278504Y1646803D02*
Y1574803D01*
X2326504Y1646803D02*
Y1574803D01*
X2104004Y1635553D02*
X2103458Y1636303D01*
X2102640Y1636678*
X2101549*
X2100731Y1636303*
X2100186Y1635553*
Y1634803*
X2100458Y1634053*
X2100731Y1633678*
X2101277Y1633303*
X2102913Y1632553*
X2103458Y1632178*
X2103731Y1631803*
X2104004Y1631053*
Y1629928*
X2103458Y1629178*
X2102640Y1628803*
X2101549*
X2100731Y1629178*
X2100186Y1629928*
X2106458Y1636678D02*
Y1628803D01*
X2112731Y1636678D02*
X2108913Y1628803D01*
Y1636678D02*
X2112731D01*
X2108913Y1628803D02*
X2112731D01*
X2115186Y1636678D02*
Y1628803D01*
Y1636678D02*
X2118731D01*
X2115186Y1632928D02*
X2117368D01*
X2115186Y1628803D02*
X2118731D01*
X2162368Y1636678D02*
X2161822Y1636303D01*
X2161277Y1635553*
X2161004Y1634803*
X2160731Y1633678*
Y1631803*
X2161004Y1630678*
X2161277Y1629928*
X2161822Y1629178*
X2162368Y1628803*
X2163458*
X2164004Y1629178*
X2164549Y1629928*
X2164822Y1630678*
X2165095Y1631803*
Y1633678*
X2164822Y1634803*
X2164549Y1635553*
X2164004Y1636303*
X2163458Y1636678*
X2162368*
X2163186Y1630303D02*
X2164822Y1628053D01*
X2169458Y1636678D02*
Y1628803D01*
X2167549Y1636678D02*
X2171368D01*
X2173822D02*
X2176004Y1632928D01*
Y1628803*
X2178186Y1636678D02*
X2176004Y1632928D01*
X2200549Y1635553D02*
X2200004Y1636303D01*
X2199186Y1636678*
X2198095*
X2197277Y1636303*
X2196731Y1635553*
Y1634803*
X2197004Y1634053*
X2197277Y1633678*
X2197822Y1633303*
X2199458Y1632553*
X2200004Y1632178*
X2200277Y1631803*
X2200549Y1631053*
Y1629928*
X2200004Y1629178*
X2199186Y1628803*
X2198095*
X2197277Y1629178*
X2196731Y1629928*
X2203004Y1636678D02*
X2205186Y1632928D01*
Y1628803*
X2207368Y1636678D02*
X2205186Y1632928D01*
X2209822Y1636678D02*
Y1628803D01*
Y1636678D02*
X2212004Y1628803D01*
X2214186Y1636678D02*
X2212004Y1628803D01*
X2214186Y1636678D02*
Y1628803D01*
X2236004Y1636678D02*
Y1628803D01*
Y1636678D02*
X2238458D01*
X2239277Y1636303*
X2239549Y1635928*
X2239822Y1635178*
Y1634053*
X2239549Y1633303*
X2239277Y1632928*
X2238458Y1632553*
X2236004*
X2242277Y1636678D02*
Y1628803D01*
X2245549*
X2250186Y1636678D02*
X2248004Y1628803D01*
X2250186Y1636678D02*
X2252368Y1628803D01*
X2248822Y1631428D02*
X2251549D01*
X2256731Y1636678D02*
Y1628803D01*
X2254822Y1636678D02*
X2258640D01*
X2261095D02*
Y1628803D01*
Y1636678D02*
X2264640D01*
X2261095Y1632928D02*
X2263277D01*
X2261095Y1628803D02*
X2264640D01*
X2267095Y1636678D02*
Y1628803D01*
Y1636678D02*
X2269004D01*
X2269822Y1636303*
X2270368Y1635553*
X2270640Y1634803*
X2270913Y1633678*
Y1631803*
X2270640Y1630678*
X2270368Y1629928*
X2269822Y1629178*
X2269004Y1628803*
X2267095*
X2295186Y1636678D02*
Y1628803D01*
X2293277Y1636678D02*
X2297095D01*
X2301186D02*
X2300640Y1636303D01*
X2300095Y1635553*
X2299822Y1634803*
X2299549Y1633678*
Y1631803*
X2299822Y1630678*
X2300095Y1629928*
X2300640Y1629178*
X2301186Y1628803*
X2302277*
X2302822Y1629178*
X2303368Y1629928*
X2303640Y1630678*
X2303913Y1631803*
Y1633678*
X2303640Y1634803*
X2303368Y1635553*
X2302822Y1636303*
X2302277Y1636678*
X2301186*
X2306368D02*
Y1628803D01*
X2309640*
X2078049Y1610053D02*
X2077777Y1608928D01*
X2077231Y1608178*
X2076413Y1607803*
X2076140*
X2075322Y1608178*
X2074777Y1608928*
X2074504Y1610053*
Y1610428*
X2074777Y1611553*
X2075322Y1612303*
X2076140Y1612678*
X2076413*
X2077231Y1612303*
X2077777Y1611553*
X2078049Y1610053*
Y1608178*
X2077777Y1606303*
X2077231Y1605178*
X2076413Y1604803*
X2075868*
X2075049Y1605178*
X2074777Y1605928*
X2080777Y1605553D02*
X2080504Y1605178D01*
X2080777Y1604803*
X2081049Y1605178*
X2080777Y1605553*
X2084868Y1612678D02*
X2084049Y1612303D01*
X2083777Y1611553*
Y1610803*
X2084049Y1610053*
X2084595Y1609678*
X2085686Y1609303*
X2086504Y1608928*
X2087049Y1608178*
X2087322Y1607428*
Y1606303*
X2087049Y1605553*
X2086777Y1605178*
X2085958Y1604803*
X2084868*
X2084049Y1605178*
X2083777Y1605553*
X2083504Y1606303*
Y1607428*
X2083777Y1608178*
X2084322Y1608928*
X2085140Y1609303*
X2086231Y1609678*
X2086777Y1610053*
X2087049Y1610803*
Y1611553*
X2086777Y1612303*
X2085958Y1612678*
X2084868*
X2092504D02*
X2089777Y1607428D01*
X2093868*
X2092504Y1612678D02*
Y1604803D01*
X2165913Y1612678D02*
X2165095Y1612303D01*
X2164822Y1611553*
Y1610803*
X2165095Y1610053*
X2165640Y1609678*
X2166731Y1609303*
X2167549Y1608928*
X2168095Y1608178*
X2168368Y1607428*
Y1606303*
X2168095Y1605553*
X2167822Y1605178*
X2167004Y1604803*
X2165913*
X2165095Y1605178*
X2164822Y1605553*
X2164549Y1606303*
Y1607428*
X2164822Y1608178*
X2165368Y1608928*
X2166186Y1609303*
X2167277Y1609678*
X2167822Y1610053*
X2168095Y1610803*
Y1611553*
X2167822Y1612303*
X2167004Y1612678*
X2165913*
X2174368Y1610053D02*
X2174095Y1608928D01*
X2173549Y1608178*
X2172731Y1607803*
X2172458*
X2171640Y1608178*
X2171095Y1608928*
X2170822Y1610053*
Y1610428*
X2171095Y1611553*
X2171640Y1612303*
X2172458Y1612678*
X2172731*
X2173549Y1612303*
X2174095Y1611553*
X2174368Y1610053*
Y1608178*
X2174095Y1606303*
X2173549Y1605178*
X2172731Y1604803*
X2172186*
X2171368Y1605178*
X2171095Y1605928*
X2200504Y1610803D02*
X2212504D01*
X2206504Y1604803D02*
Y1616803D01*
X2233140Y1612678D02*
X2235322Y1608928D01*
Y1604803*
X2237504Y1612678D02*
X2235322Y1608928D01*
X2239958Y1612678D02*
Y1604803D01*
Y1612678D02*
X2243504D01*
X2239958Y1608928D02*
X2242140D01*
X2239958Y1604803D02*
X2243504D01*
X2249777Y1611553D02*
X2249231Y1612303D01*
X2248413Y1612678*
X2247322*
X2246504Y1612303*
X2245958Y1611553*
Y1610803*
X2246231Y1610053*
X2246504Y1609678*
X2247049Y1609303*
X2248686Y1608553*
X2249231Y1608178*
X2249504Y1607803*
X2249777Y1607053*
Y1605928*
X2249231Y1605178*
X2248413Y1604803*
X2247322*
X2246504Y1605178*
X2245958Y1605928*
X2286322Y1611553D02*
Y1604803D01*
X2283868Y1608178D02*
X2288777D01*
X2296140Y1614178D02*
X2291231Y1602178D01*
X2298595Y1608178D02*
X2303504D01*
X2306504Y1612678D02*
X2309504D01*
X2307868Y1609678*
X2308686*
X2309231Y1609303*
X2309504Y1608928*
X2309777Y1607803*
Y1607053*
X2309504Y1605928*
X2308958Y1605178*
X2308140Y1604803*
X2307322*
X2306504Y1605178*
X2306231Y1605553*
X2305958Y1606303*
X2312504Y1605553D02*
X2312231Y1605178D01*
X2312504Y1604803*
X2312777Y1605178*
X2312504Y1605553*
X2316868Y1612678D02*
X2316049Y1612303D01*
X2315504Y1611178*
X2315231Y1609303*
Y1608178*
X2315504Y1606303*
X2316049Y1605178*
X2316868Y1604803*
X2317413*
X2318231Y1605178*
X2318777Y1606303*
X2319049Y1608178*
Y1609303*
X2318777Y1611178*
X2318231Y1612303*
X2317413Y1612678*
X2316868*
X2074504Y1587178D02*
X2075049Y1587553D01*
X2075868Y1588678*
Y1580803*
X2078595Y1586803D02*
Y1587178D01*
X2078868Y1587928*
X2079140Y1588303*
X2079686Y1588678*
X2080777*
X2081322Y1588303*
X2081595Y1587928*
X2081868Y1587178*
Y1586428*
X2081595Y1585678*
X2081049Y1584553*
X2078322Y1580803*
X2082140*
X2165640Y1587178D02*
X2166186Y1587553D01*
X2167004Y1588678*
Y1580803*
X2171095Y1588678D02*
X2170277Y1588303D01*
X2169731Y1587178*
X2169458Y1585303*
Y1584178*
X2169731Y1582303*
X2170277Y1581178*
X2171095Y1580803*
X2171640*
X2172458Y1581178*
X2173004Y1582303*
X2173277Y1584178*
Y1585303*
X2173004Y1587178*
X2172458Y1588303*
X2171640Y1588678*
X2171095*
X2200504Y1580803D02*
X2212504Y1592803D01*
X2200504D02*
X2212504Y1580803D01*
X2233140Y1588678D02*
X2235322Y1584928D01*
Y1580803*
X2237504Y1588678D02*
X2235322Y1584928D01*
X2239958Y1588678D02*
Y1580803D01*
Y1588678D02*
X2243504D01*
X2239958Y1584928D02*
X2242140D01*
X2239958Y1580803D02*
X2243504D01*
X2249777Y1587553D02*
X2249231Y1588303D01*
X2248413Y1588678*
X2247322*
X2246504Y1588303*
X2245958Y1587553*
Y1586803*
X2246231Y1586053*
X2246504Y1585678*
X2247049Y1585303*
X2248686Y1584553*
X2249231Y1584178*
X2249504Y1583803*
X2249777Y1583053*
Y1581928*
X2249231Y1581178*
X2248413Y1580803*
X2247322*
X2246504Y1581178*
X2245958Y1581928*
X2286322Y1587553D02*
Y1580803D01*
X2283868Y1584178D02*
X2288777D01*
X2296140Y1590178D02*
X2291231Y1578178D01*
X2298595Y1584178D02*
X2303504D01*
X2306504Y1588678D02*
X2309504D01*
X2307868Y1585678*
X2308686*
X2309231Y1585303*
X2309504Y1584928*
X2309777Y1583803*
Y1583053*
X2309504Y1581928*
X2308958Y1581178*
X2308140Y1580803*
X2307322*
X2306504Y1581178*
X2306231Y1581553*
X2305958Y1582303*
X2312504Y1581553D02*
X2312231Y1581178D01*
X2312504Y1580803*
X2312777Y1581178*
X2312504Y1581553*
X2316868Y1588678D02*
X2316049Y1588303D01*
X2315504Y1587178*
X2315231Y1585303*
Y1584178*
X2315504Y1582303*
X2316049Y1581178*
X2316868Y1580803*
X2317413*
X2318231Y1581178*
X2318777Y1582303*
X2319049Y1584178*
Y1585303*
X2318777Y1587178*
X2318231Y1588303*
X2317413Y1588678*
X2316868*
G54D24*
X1968504Y1640157D02*
X2020472D01*
Y1574803*
X1968504*
Y1640157*
X0Y0D02*
M02*
