M48
;FILE_FORMAT=2:4
INCH,LZ
FMAT,2
ICI,OFF
;TYPE=PLATED
T1C.00984
T2C.012
%
M72
G90
G93X0Y0
T1C.00984F0S0
X19741Y15812
X19753Y15921
X19757Y15886
X19762Y15814
X19766Y15965
X1977Y15934
X19776Y16016
X19776Y15851
X19785Y15814
X19792Y15985
X19793Y15883
X19795Y16016
X19795Y159155
X19795Y15949
X19807Y15825
X198175Y15883
X1982Y15862
X198211Y160069
X19851Y15845
X198595Y1595
X19875Y1581
X198817Y159277
X198818Y159723
X19904Y159055
X19904Y159945
X19904Y1595
X19906Y16054
X1991Y15834
X199263Y159277
X199263Y159723
X199485Y1595
X19974Y15826
X19984Y16007
X20007Y15826
X20021Y15929
X20031Y16007
X20038Y15826
X20062Y15865
X20064Y15972
X20064Y15843
X20068Y15885
X20068Y15932
X20082Y15916
X20086Y15948
X20088Y1597
X20089Y15893
X201Y15816
X20103Y15851
X20111Y15967
X20119Y15895
X20138Y15929
X20139Y15862
X20141Y16025
X20142Y15813
X20154Y16158
X201535Y161772
X2014Y1608
X20134Y16128
X20123Y16096
X20106Y16113
X20088Y1613
X200551Y161772
X20048Y16131
X20027Y1613
X19993Y16124
X19983Y16068
X19978Y16098
X19971Y16131
X199606Y161772
X19956Y16107
X19945Y1613
X19932Y1609
X19931Y16112
X19909Y16091
X19907Y16119
X19883Y16122
X198661Y161772
X19864Y16131
X198346Y161772
X19829Y16091
X19827Y16068
X19812Y16101
X19797Y1607
X19793Y16127
X19782Y16109
X19766Y16063
X19746Y16063
X19736Y16158
X19736Y16177
T2C.012F0S0
X198487Y162651
X199314Y162653
X200137Y162652
X200962Y162652
X201787Y162246
X201787Y163793
X200962Y163793
X200137Y163793
X199313Y163793
X198487Y163793
M30
