*
*
G04 PADS VX.2 Build Number: 5060570 generated Gerber (RS-274-X) file*
G04 PC Version=2.1*
*
%IN "PCB_ESP8684-MINI-1_V1.0"*%
*
%MOIN*%
*
%FSLAX35Y35*%
*
*
*
*
G04 PC Standard Apertures*
*
*
G04 Thermal Relief Aperture macro.*
%AMTER*
1,1,$1,0,0*
1,0,$1-$2,0,0*
21,0,$3,$4,0,0,45*
21,0,$3,$4,0,0,135*
%
*
*
G04 Annular Aperture macro.*
%AMANN*
1,1,$1,0,0*
1,0,$2,0,0*
%
*
*
G04 Odd Aperture macro.*
%AMODD*
1,1,$1,0,0*
1,0,$1-0.005,0,0*
%
*
*
G04 PC Custom Aperture Macros*
*
*
*
*
*
*
G04 PC Aperture Table*
*
%ADD010C,0.001*%
%ADD024C,0.005*%
%ADD025C,0.006*%
%ADD055C,0.004*%
%ADD125C,0.002*%
*
*
*
*
G04 PC Circuitry*
G04 Layer Name PCB_ESP8684-MINI-1_V1.0 - circuitry*
%LPD*%
*
*
G04 PC Custom Flashes*
G04 Layer Name PCB_ESP8684-MINI-1_V1.0 - flashes*
%LPD*%
*
*
G04 PC Circuitry*
G04 Layer Name PCB_ESP8684-MINI-1_V1.0 - circuitry*
%LPD*%
*
G54D10*
G54D24*
G01X1968504Y1640157D02*
X2020472D01*
Y1574803*
X1968504*
Y1640157*
G54D25*
X1997846Y1607928D02*
X1998840Y1608922D01*
Y1607928*
X1997846*
G54D55*
X2000287Y1596256D02*
X2001539Y1595003D01*
X2000287Y1593750*
X1980521Y1596256D02*
X1979268Y1595003D01*
X1980521Y1593750*
X1991657Y1604886D02*
X1990961Y1605582D01*
X1989847*
X1989151Y1604886*
Y1585120D02*
X1990404Y1583868D01*
X1991657Y1585120*
X1991270Y1607155D02*
G75*
G03X1991270I-787J0D01*
G01X1974504Y1611103D02*
Y1613303D01*
X1974903Y1613703*
X1977091*
X1977504Y1613290*
Y1611103*
X1974504Y1609103D02*
Y1606903D01*
X1974904Y1606503*
X1977104*
X1977504Y1606903*
Y1609103*
X2006528Y1614364D02*
X2015801Y1605091D01*
X2007675Y1596965*
X1998401Y1606238*
X2006528Y1614364*
G54D125*
X1999609Y1611263D02*
X1998753Y1610408D01*
Y1610125*
X2000026Y1608853*
X2000309*
X2001164Y1609708*
X2000444Y1612099D02*
X2001299Y1612954D01*
X2001582*
X2002855Y1611681*
Y1611398*
X2001999Y1610543*
X2001114Y1589749D02*
X2000259Y1590604D01*
X1999976*
X1998703Y1589331*
Y1589048*
X1999559Y1588193*
X2001949Y1588913D02*
X2002805Y1588058D01*
Y1587775*
X2001532Y1586503*
X2001249*
X2000394Y1587358*
X1980559Y1612993D02*
X1979703Y1612138D01*
Y1611855*
X1980976Y1610583*
X1981259*
X1982114Y1611438*
X1981394Y1613829D02*
X1982249Y1614684D01*
X1982532*
X1983805Y1613411*
Y1613128*
X1982949Y1612273*
X2001564Y1601099D02*
X2000709Y1601954D01*
X2000426*
X1999153Y1600681*
Y1600398*
X2000009Y1599543*
X2002399Y1600263D02*
X2003255Y1599408D01*
Y1599125*
X2001982Y1597853*
X2001699*
X2000844Y1598708*
X2013599Y1599043D02*
X2014455Y1599898D01*
Y1600181*
X2013182Y1601454*
X2012899*
X2012044Y1600599*
X2012764Y1598208D02*
X2011909Y1597353D01*
X2011626*
X2010353Y1598625*
Y1598908*
X2011209Y1599763*
X1984604Y1584144D02*
Y1585353D01*
X1984404Y1585553*
X1982604*
X1982404Y1585353*
Y1584144*
X1984604Y1582963D02*
Y1581753D01*
X1984404Y1581553*
X1982604*
X1982404Y1581753*
Y1582963*
X1982604Y1603713D02*
Y1602503D01*
X1982804Y1602303*
X1984604*
X1984804Y1602503*
Y1603713*
X1982604Y1604894D02*
Y1606103D01*
X1982804Y1606303*
X1984604*
X1984804Y1606103*
Y1604894*
X1993409Y1608163D02*
X1992553Y1607308D01*
Y1607025*
X1993826Y1605753*
X1994109*
X1994964Y1606608*
X1994244Y1608999D02*
X1995099Y1609854D01*
X1995382*
X1996655Y1608581*
Y1608298*
X1995799Y1607443*
X1979804Y1604894D02*
Y1606103D01*
X1979604Y1606303*
X1977804*
X1977604Y1606103*
Y1604894*
X1979804Y1603713D02*
Y1602503D01*
X1979604Y1602303*
X1977804*
X1977604Y1602503*
Y1603713*
X1989159Y1608833D02*
X1990015Y1609688D01*
Y1609971*
X1988742Y1611244*
X1988459*
X1987604Y1610389*
X1988324Y1607998D02*
X1987469Y1607143D01*
X1987186*
X1985913Y1608415*
Y1608698*
X1986769Y1609553*
X1980102Y1602335D02*
Y1606272D01*
X1982306*
Y1602335*
X1980102*
X1985476Y1608732D02*
X1982693Y1611516D01*
X1984251Y1613075*
X1987035Y1610291*
X1985476Y1608732*
X1997566Y1605800D02*
X1996591Y1606775D01*
X1995033Y1605216*
X1996007Y1604241*
X1998401Y1604965D02*
X1999375Y1603991D01*
X1997816Y1602432*
X1996842Y1603406*
X2004866Y1596750D02*
X2003891Y1597725D01*
X2002333Y1596166*
X2003307Y1595191*
X2005701Y1595915D02*
X2006675Y1594941D01*
X2005116Y1593382*
X2004142Y1594356*
X1977272Y1600397D02*
X1973335D01*
X1977272Y1603497D02*
Y1605662D01*
X1973335*
Y1603497*
Y1602709D02*
Y1599954D01*
X1977272*
Y1602709*
G74*
X0Y0D02*
M02*
