*
*
G04 PADS VX.2 Build Number: 5060570 generated Gerber (RS-274-X) file*
G04 PC Version=2.1*
*
%IN "PCB_ESP8684-MINI-1_V1.0"*%
*
%MOIN*%
*
%FSLAX35Y35*%
*
*
*
*
G04 PC Standard Apertures*
*
*
G04 Thermal Relief Aperture macro.*
%AMTER*
1,1,$1,0,0*
1,0,$1-$2,0,0*
21,0,$3,$4,0,0,45*
21,0,$3,$4,0,0,135*
%
*
*
G04 Annular Aperture macro.*
%AMANN*
1,1,$1,0,0*
1,0,$2,0,0*
%
*
*
G04 Odd Aperture macro.*
%AMODD*
1,1,$1,0,0*
1,0,$1-0.005,0,0*
%
*
*
G04 PC Custom Aperture Macros*
*
*
*
*
*
*
G04 PC Aperture Table*
*
%ADD010C,0.001*%
%ADD024C,0.005*%
%ADD055C,0.004*%
%ADD093C,0.007*%
%ADD407C,0.00472*%
*
*
*
*
G04 PC Circuitry*
G04 Layer Name PCB_ESP8684-MINI-1_V1.0 - circuitry*
%LPD*%
*
G54D10*
G01X2015962Y1635983D02*
X2015522D01*
Y1634353*
X2015472Y1634303*
X2014092*
X2014042Y1634353*
Y1635983*
X2013602*
Y1632063*
X2014042*
Y1633873*
X2014092Y1633923*
X2015472*
X2015522Y1633873*
Y1632063*
X2015962*
Y1635983*
X2014664Y1621988D02*
X2012674D01*
Y1621767*
X2014312*
X2014362Y1621717*
Y1620792*
X2014312Y1620742*
X2012795*
Y1620521*
X2014312*
X2014362Y1620471*
Y1619467*
X2014312Y1619417*
X2012594*
Y1619195*
X2014664*
Y1621988*
X2012902Y1635983D02*
X2010542D01*
Y1635603*
X2012412*
X2012462Y1635553*
Y1634233*
X2012412Y1634183*
X2011022*
Y1633863*
X2012412*
X2012462Y1633813*
Y1632063*
X2012902*
Y1635983*
X2012085Y1620100D02*
X2011781D01*
X2011749Y1619939*
X2011747Y1619930*
X2011666Y1619729*
X2011655Y1619712*
X2011535Y1619592*
X2011529Y1619587*
X2011369Y1619467*
X2011357Y1619460*
X2011156Y1619380*
X2011138Y1619376*
X2010937*
X2010926Y1619378*
X2010564Y1619458*
X2010553Y1619462*
X2010392Y1619542*
X2010379Y1619552*
X2010299Y1619632*
X2010289Y1619645*
X2010209Y1619806*
X2010204Y1619828*
Y1619949*
X2010207Y1619967*
X2010288Y1620168*
X2010293Y1620177*
X2010373Y1620298*
X2010392Y1620315*
X2010553Y1620395*
X2010563Y1620399*
X2011360Y1620598*
X2011750Y1620832*
X2011860Y1620943*
X2011934Y1621090*
X2011971Y1621275*
X2011933Y1621461*
X2011859Y1621648*
X2011709Y1621797*
X2011519Y1621912*
X2011287Y1621989*
X2011017Y1622028*
X2010707Y1621989*
X2010474Y1621911*
X2010243Y1621796*
X2010096Y1621648*
X2010021Y1621462*
X2009991Y1621284*
X2010292*
X2010325Y1621484*
X2010339Y1621511*
X2010500Y1621672*
X2010517Y1621683*
X2010717Y1621763*
X2010728Y1621766*
X2010969Y1621806*
X2010984*
X2011265Y1621766*
X2011277Y1621763*
X2011478Y1621683*
X2011499Y1621666*
X2011620Y1621505*
X2011628Y1621488*
X2011668Y1621327*
Y1621303*
X2011628Y1621142*
X2011615Y1621119*
X2011540Y1621044*
X2011504Y1620971*
X2011475Y1620946*
X2011354Y1620906*
X2011351Y1620905*
X2011193Y1620865*
X2010996Y1620786*
X2010988Y1620784*
X2010629Y1620704*
X2010394Y1620626*
X2010163Y1620510*
X2010015Y1620363*
X2009941Y1620176*
X2009903Y1619950*
X2009903D02*
X2009940Y1619762D01*
X2010016Y1619572*
X2010165Y1619386*
X2010394Y1619272*
X2010627Y1619194*
X2010898Y1619155*
X2010898D02*
X2011249Y1619194D01*
X2011559Y1619272*
X2011787Y1619423*
X2011938Y1619613*
X2012053Y1619882*
X2012085Y1620100*
X2009280Y1621988D02*
X2008010D01*
X2007857Y1621950*
X2007509Y1621834*
X2007399Y1621724*
X2007284Y1621571*
X2007210Y1621385*
Y1621197*
X2007248Y1620892*
X2007439Y1620624*
X2007550Y1620514*
X2007737Y1620439*
X2007928Y1620400*
X2008928*
X2008978Y1620350*
Y1619195*
X2009280*
Y1621988*
X2008978Y1621717D02*
Y1620672D01*
X2008928Y1620622*
X2008205*
X2008198*
X2007916Y1620663*
X2007905Y1620666*
X2007704Y1620746*
X2007680Y1620767*
X2007559Y1620968*
X2007553Y1620984*
X2007513Y1621184*
X2007512Y1621194*
Y1621355*
X2007517Y1621377*
X2007598Y1621538*
X2007607Y1621551*
X2007727Y1621672*
X2007747Y1621684*
X2007988Y1621764*
X2008004Y1621767*
X2008928*
X2008978Y1621717*
X2006707Y1619990D02*
X2006669Y1620218D01*
X2006594Y1620444*
X2006450Y1620588*
X2006220Y1620665*
X2006210Y1620755*
X2006406Y1620872*
X2006516Y1620983*
X2006590Y1621130*
X2006627Y1621316*
X2006590Y1621575*
X2006403Y1621799*
X2006403D02*
X2006178Y1621949D01*
X2005834Y1621988*
X2005490Y1621949*
X2005265Y1621799*
X2005265D02*
X2005078Y1621575D01*
X2005041Y1621278*
X2005078Y1621131*
X2005152Y1620983*
X2005263Y1620872*
X2005458Y1620755*
X2005455Y1620667*
X2005221Y1620550*
X2005073Y1620403*
X2004999Y1620216*
X2004961Y1619990*
X2005038Y1619645*
X2005188Y1619382*
X2005489Y1619194*
X2005834Y1619155*
X2006179Y1619194*
X2006480Y1619382*
X2006631Y1619645*
X2006707Y1619990*
X2006365Y1621305D02*
X2006325Y1621104D01*
X2006318Y1621086*
X2006237Y1620966*
X2006218Y1620949*
X2006057Y1620868*
X2006045Y1620864*
X2005844Y1620824*
X2005824*
X2005624Y1620864*
X2005611Y1620868*
X2005450Y1620949*
X2005431Y1620966*
X2005351Y1621086*
X2005344Y1621102*
X2005304Y1621262*
Y1621287*
X2005344Y1621447*
X2005348Y1621458*
X2005428Y1621618*
X2005450Y1621641*
X2005611Y1621721*
X2005624Y1621725*
X2005824Y1621766*
X2005844*
X2006045Y1621725*
X2006057Y1621721*
X2006218Y1621641*
X2006237Y1621624*
X2006318Y1621503*
X2006325Y1621488*
X2006365Y1621327*
Y1621305*
X2006447Y1619989D02*
X2006446Y1619982D01*
X2006406Y1619701*
X2006398Y1619680*
X2006318Y1619559*
X2006299Y1619542*
X2006141Y1619463*
X2006023Y1619385*
X2005995Y1619376*
X2005834*
X2005826Y1619377*
X2005585Y1619417*
X2005563Y1619427*
X2005402Y1619547*
X2005392Y1619557*
X2005272Y1619718*
X2005263Y1619740*
X2005222Y1619981*
Y1619989*
X2005223Y1619999*
X2005263Y1620200*
X2005269Y1620215*
X2005390Y1620416*
X2005402Y1620431*
X2005563Y1620551*
X2005585Y1620561*
X2005826Y1620601*
X2005842*
X2006083Y1620561*
X2006105Y1620551*
X2006266Y1620431*
X2006279Y1620416*
X2006399Y1620215*
X2006406Y1620200*
X2006446Y1619999*
X2006447Y1619989*
X2004539Y1620508D02*
X2004499Y1620867D01*
X2004459Y1621184*
X2004382Y1621454*
X2004230Y1621682*
X2003925Y1621911*
X2003542Y1621987*
X2003241Y1621950*
X2003015Y1621799*
X2003015D02*
X2002826Y1621573D01*
X2002763Y1621318*
X2003022Y1621289*
X2003053Y1621445*
X2003060Y1621463*
X2003141Y1621584*
X2003152Y1621596*
X2003313Y1621716*
X2003333Y1621725*
X2003534Y1621766*
X2003556Y1621765*
X2003878Y1621685*
X2003901Y1621672*
X2004062Y1621511*
X2004073Y1621494*
X2004153Y1621293*
X2004154Y1621290*
X2004234Y1621049*
X2004237Y1621038*
X2004277Y1620637*
Y1620632*
X2004188Y1620600*
X2004031Y1620796*
X2003885Y1620906*
X2003505Y1620982*
X2003204Y1620907*
X2002939Y1620718*
X2002788Y1620453*
X2002711Y1620107*
X2002749Y1619840*
X2002826Y1619608*
X2002939Y1619420*
X2003126Y1619270*
X2003355Y1619194*
X2003588Y1619155*
X2003775*
X2003965Y1619231*
X2004117Y1619307*
X2004268Y1619457*
X2004382Y1619648*
X2004461Y1619883*
X2004539Y1620157*
Y1620508*
X2004277Y1620109D02*
X2004276Y1620100D01*
X2004236Y1619899*
X2004235Y1619896*
X2004195Y1619736*
X2004188Y1619720*
X2004108Y1619600*
X2004096Y1619587*
X2003936Y1619467*
X2003933Y1619465*
X2003813Y1619385*
X2003785Y1619376*
X2003584*
X2003574Y1619377*
X2003374Y1619418*
X2003358Y1619424*
X2003157Y1619544*
X2003140Y1619561*
X2003019Y1619762*
X2003012Y1619781*
X2002972Y1620062*
Y1620076*
X2003012Y1620358*
X2003019Y1620376*
X2003140Y1620577*
X2003157Y1620594*
X2003358Y1620715*
X2003375Y1620721*
X2003616Y1620761*
X2003633*
X2003874Y1620721*
X2003891Y1620715*
X2004092Y1620594*
X2004109Y1620577*
X2004230Y1620376*
X2004236Y1620359*
X2004276Y1620118*
X2004277Y1620109*
X2002207Y1619990D02*
X2002169Y1620218D01*
X2002094Y1620444*
X2001950Y1620588*
X2001720Y1620665*
X2001710Y1620755*
X2001906Y1620872*
X2002016Y1620983*
X2002090Y1621130*
X2002127Y1621316*
X2002090Y1621575*
X2001903Y1621799*
X2001903D02*
X2001678Y1621949D01*
X2001334Y1621988*
X2000990Y1621949*
X2000765Y1621799*
X2000765D02*
X2000578Y1621575D01*
X2000541Y1621278*
X2000578Y1621131*
X2000652Y1620983*
X2000763Y1620872*
X2000958Y1620755*
X2000955Y1620667*
X2000721Y1620550*
X2000573Y1620403*
X2000499Y1620216*
X2000461Y1619990*
X2000538Y1619645*
X2000688Y1619382*
X2000989Y1619194*
X2001334Y1619155*
X2001679Y1619194*
X2001980Y1619382*
X2002131Y1619645*
X2002207Y1619990*
X2001865Y1621305D02*
X2001825Y1621104D01*
X2001818Y1621086*
X2001737Y1620966*
X2001718Y1620949*
X2001557Y1620868*
X2001545Y1620864*
X2001344Y1620824*
X2001324*
X2001124Y1620864*
X2001111Y1620868*
X2000950Y1620949*
X2000931Y1620966*
X2000851Y1621086*
X2000844Y1621102*
X2000804Y1621262*
Y1621287*
X2000844Y1621447*
X2000848Y1621458*
X2000928Y1621618*
X2000950Y1621641*
X2001111Y1621721*
X2001124Y1621725*
X2001324Y1621766*
X2001344*
X2001545Y1621725*
X2001557Y1621721*
X2001718Y1621641*
X2001737Y1621624*
X2001818Y1621503*
X2001825Y1621488*
X2001865Y1621327*
Y1621305*
X2001947Y1619989D02*
X2001946Y1619982D01*
X2001906Y1619701*
X2001898Y1619680*
X2001818Y1619559*
X2001799Y1619542*
X2001641Y1619463*
X2001523Y1619385*
X2001495Y1619376*
X2001334*
X2001326Y1619377*
X2001085Y1619417*
X2001063Y1619427*
X2000902Y1619547*
X2000892Y1619557*
X2000772Y1619718*
X2000763Y1619740*
X2000722Y1619981*
Y1619989*
X2000723Y1619999*
X2000763Y1620200*
X2000769Y1620215*
X2000890Y1620416*
X2000902Y1620431*
X2001063Y1620551*
X2001085Y1620561*
X2001326Y1620601*
X2001342*
X2001583Y1620561*
X2001605Y1620551*
X2001766Y1620431*
X2001779Y1620416*
X2001899Y1620215*
X2001906Y1620200*
X2001946Y1619999*
X2001947Y1619989*
X2000119Y1620173D02*
X1998778Y1621948D01*
X1998572*
Y1620190*
X1998522Y1620140*
X1998210*
Y1619878*
X1998522*
X1998572Y1619828*
Y1619195*
X1998833*
Y1619828*
X1998883Y1619878*
X2000119*
Y1620173*
X1999727Y1620140D02*
X1998883D01*
X1998833Y1620190*
Y1621315*
X1998923Y1621345*
X1999767Y1620220*
X1999727Y1620140*
X1997789Y1620260D02*
X1996804D01*
Y1620039*
X1997789*
Y1620260*
X1996302Y1621988D02*
X1995786D01*
X1995154Y1619973*
X1995074Y1619732*
X1995071Y1619725*
X1994991Y1619565*
X1994897Y1619575*
X1994857Y1619735*
X1994777Y1620015*
X1994146Y1621988*
X1993630*
Y1619195*
X1993932*
Y1621596*
X1994029Y1621612*
X1994821Y1619195*
X1995150*
X1995903Y1621611*
X1996000Y1621596*
Y1619195*
X1996302*
Y1621988*
X1992887D02*
X1992585D01*
Y1619195*
X1992887*
Y1621988*
X1991802D02*
X1991437D01*
X1990046Y1619841*
X1989954Y1619868*
Y1621988*
X1989652*
Y1619195*
X1990017*
X1991408Y1621342*
X1991500Y1621315*
Y1619195*
X1991802*
Y1621988*
X1988869D02*
X1988567D01*
Y1619195*
X1988869*
Y1621988*
X1987985Y1620260D02*
X1987000D01*
Y1620039*
X1987985*
Y1620260*
X1986338Y1621286D02*
X1986082Y1621432D01*
X1986079Y1621434*
X1985838Y1621595*
X1985830Y1621601*
X1985629Y1621802*
X1985622Y1621811*
X1985516Y1621988*
X1985353*
Y1619195*
X1985615*
Y1621395*
X1985695Y1621435*
X1986012Y1621197*
X1986338Y1621034*
Y1621286*
X1982296Y1621988D02*
X1981962D01*
X1981171Y1619932*
X1981011Y1619451*
X1980915Y1619454*
X1980795Y1619934*
X1980005Y1621988*
X1979671*
X1980757Y1619195*
X1981171*
X1982296Y1621988*
X1979146Y1621286D02*
X1978890Y1621432D01*
X1978887Y1621434*
X1978646Y1621595*
X1978638Y1621601*
X1978437Y1621802*
X1978430Y1621811*
X1978324Y1621988*
X1978161*
Y1619195*
X1978423*
Y1621395*
X1978503Y1621435*
X1978820Y1621197*
X1979146Y1621034*
Y1621286*
X1976976Y1619457D02*
X1976715D01*
Y1619195*
X1976976*
Y1619457*
X1976012Y1620549D02*
X1975972Y1621026D01*
X1975894Y1621380*
X1975778Y1621650*
X1975628Y1621837*
X1975404Y1621949*
X1975139Y1621987*
X1974757Y1621911*
X1974611Y1621801*
X1974499Y1621652*
X1974342Y1621219*
X1974264Y1620946*
Y1620554*
X1974303Y1620117*
X1974382Y1619763*
X1974498Y1619492*
X1974648Y1619305*
X1974872Y1619193*
X1975136Y1619156*
X1975479Y1619232*
X1975743Y1619421*
X1975855Y1619607*
X1975933Y1619881*
X1976012Y1620196*
Y1620549*
X1975750Y1620873D02*
Y1620230D01*
Y1620222*
X1975709Y1619981*
Y1619979*
X1975669Y1619778*
X1975665Y1619766*
X1975584Y1619605*
X1975571Y1619588*
X1975370Y1619427*
X1975370D02*
X1975348Y1619418D01*
X1975148Y1619377*
X1975128*
X1974927Y1619418*
X1974906Y1619427*
X1974906D02*
X1974705Y1619588D01*
X1974691Y1619605*
X1974611Y1619766*
X1974607Y1619778*
X1974566Y1619979*
Y1619981*
X1974526Y1620222*
X1974525Y1620230*
Y1620873*
X1974526Y1620880*
X1974566Y1621161*
Y1621164*
X1974607Y1621365*
X1974614Y1621383*
X1974694Y1621503*
X1974697Y1621507*
X1974858Y1621708*
X1974888Y1621726*
X1975130Y1621766*
X1975148*
X1975348Y1621725*
X1975370Y1621715*
X1975571Y1621555*
X1975584Y1621538*
X1975665Y1621377*
X1975669Y1621365*
X1975709Y1621164*
X1975710Y1621161*
X1975750Y1620880*
Y1620873*
X1974300Y1620154D02*
Y1621073D01*
X1974400Y1619721D02*
Y1621380D01*
X1974500Y1619490D02*
Y1621653D01*
X1974600Y1619365D02*
Y1619811D01*
Y1621332D02*
Y1621787D01*
X1974700Y1619279D02*
Y1619593D01*
Y1621511D02*
Y1621868D01*
X1974800Y1619229D02*
Y1619512D01*
Y1621636D02*
Y1621919D01*
X1974900Y1619189D02*
Y1619432D01*
Y1621728D02*
Y1621939D01*
X1975000Y1619175D02*
Y1619403D01*
Y1621744D02*
Y1621959D01*
X1975100Y1619161D02*
Y1619383D01*
Y1621761D02*
Y1621979D01*
X1975200Y1619170D02*
Y1619388D01*
Y1621755D02*
Y1621979D01*
X1975300Y1619192D02*
Y1619408D01*
Y1621735D02*
Y1621964D01*
X1975400Y1619214D02*
Y1619452D01*
Y1621691D02*
Y1621950D01*
X1975500Y1619247D02*
Y1619532D01*
Y1621611D02*
Y1621901D01*
X1975600Y1619319D02*
Y1619636D01*
Y1621507D02*
Y1621851D01*
X1975700Y1619390D02*
Y1619933D01*
Y1621209D02*
Y1621747D01*
X1975800Y1619516D02*
Y1621598D01*
X1975900Y1619765D02*
Y1621351D01*
X1976000Y1620148D02*
Y1620692D01*
X1976800Y1619195D02*
Y1619457D01*
X1976900Y1619195D02*
Y1619457D01*
X1978200Y1619195D02*
Y1621988D01*
X1978300Y1619195D02*
Y1621988D01*
X1978400Y1619195D02*
Y1621861D01*
X1978500Y1621437D02*
Y1621739D01*
X1978600Y1621362D02*
Y1621639D01*
X1978700Y1621287D02*
Y1621558D01*
X1978800Y1621212D02*
Y1621492D01*
X1978900Y1621157D02*
Y1621426D01*
X1979000Y1621107D02*
Y1621369D01*
X1979100Y1621057D02*
Y1621312D01*
X1979700Y1621913D02*
Y1621988D01*
X1979800Y1621655D02*
Y1621988D01*
X1979900Y1621398D02*
Y1621988D01*
X1980000Y1621141D02*
Y1621988D01*
X1980100Y1620884D02*
Y1621742D01*
X1980200Y1620627D02*
Y1621482D01*
X1980300Y1620370D02*
Y1621222D01*
X1980400Y1620113D02*
Y1620962D01*
X1980500Y1619855D02*
Y1620702D01*
X1980600Y1619598D02*
Y1620442D01*
X1980700Y1619341D02*
Y1620182D01*
X1980800Y1619195D02*
Y1619915D01*
X1980900Y1619195D02*
Y1619515D01*
X1981000Y1619195D02*
Y1619432D01*
X1981100Y1619195D02*
Y1619717D01*
X1981200Y1619267D02*
Y1620006D01*
X1981300Y1619515D02*
Y1620266D01*
X1981400Y1619764D02*
Y1620526D01*
X1981500Y1620012D02*
Y1620786D01*
X1981600Y1620260D02*
Y1621046D01*
X1981700Y1620509D02*
Y1621306D01*
X1981800Y1620757D02*
Y1621566D01*
X1981900Y1621005D02*
Y1621826D01*
X1982000Y1621253D02*
Y1621988D01*
X1982100Y1621502D02*
Y1621988D01*
X1982200Y1621750D02*
Y1621988D01*
X1985400Y1619195D02*
Y1621988D01*
X1985500Y1619195D02*
Y1621988D01*
X1985600Y1619195D02*
Y1621848D01*
X1985700Y1621431D02*
Y1621731D01*
X1985800Y1621356D02*
Y1621631D01*
X1985900Y1621281D02*
Y1621553D01*
X1986000Y1621206D02*
Y1621486D01*
X1986100Y1621153D02*
Y1621422D01*
X1986200Y1621103D02*
Y1621364D01*
X1986300Y1621053D02*
Y1621307D01*
X1987100Y1620039D02*
Y1620260D01*
X1987200Y1620039D02*
Y1620260D01*
X1987300Y1620039D02*
Y1620260D01*
X1987400Y1620039D02*
Y1620260D01*
X1987500Y1620039D02*
Y1620260D01*
X1987600Y1620039D02*
Y1620260D01*
X1987700Y1620039D02*
Y1620260D01*
X1987800Y1620039D02*
Y1620260D01*
X1987900Y1620039D02*
Y1620260D01*
X1988600Y1619195D02*
Y1621988D01*
X1988700Y1619195D02*
Y1621988D01*
X1988800Y1619195D02*
Y1621988D01*
X1989700Y1619195D02*
Y1621988D01*
X1989800Y1619195D02*
Y1621988D01*
X1989900Y1619195D02*
Y1621988D01*
X1990000Y1619195D02*
Y1619818D01*
X1990100Y1619323D02*
Y1619925D01*
X1990200Y1619478D02*
Y1620079D01*
X1990300Y1619632D02*
Y1620233D01*
X1990400Y1619786D02*
Y1620388D01*
X1990500Y1619941D02*
Y1620542D01*
X1990600Y1620095D02*
Y1620696D01*
X1990700Y1620249D02*
Y1620850D01*
X1990800Y1620403D02*
Y1621005D01*
X1990900Y1620558D02*
Y1621159D01*
X1991000Y1620712D02*
Y1621313D01*
X1991100Y1620866D02*
Y1621468D01*
X1991200Y1621021D02*
Y1621622D01*
X1991300Y1621175D02*
Y1621776D01*
X1991400Y1621329D02*
Y1621930D01*
X1991500Y1621320D02*
Y1621988D01*
X1991600Y1619195D02*
Y1621988D01*
X1991700Y1619195D02*
Y1621988D01*
X1991800Y1619195D02*
Y1621988D01*
X1992600Y1619195D02*
Y1621988D01*
X1992700Y1619195D02*
Y1621988D01*
X1992800Y1619195D02*
Y1621988D01*
X1993700Y1619195D02*
Y1621988D01*
X1993800Y1619195D02*
Y1621988D01*
X1993900Y1619195D02*
Y1621988D01*
X1994000Y1621642D02*
Y1621988D01*
X1994100Y1621395D02*
Y1621988D01*
X1994200Y1621090D02*
Y1621819D01*
X1994300Y1620785D02*
Y1621506D01*
X1994400Y1620480D02*
Y1621194D01*
X1994500Y1620175D02*
Y1620881D01*
X1994600Y1619870D02*
Y1620569D01*
X1994700Y1619565D02*
Y1620256D01*
X1994800Y1619260D02*
Y1619936D01*
X1994900Y1619195D02*
Y1619567D01*
X1995000Y1619195D02*
Y1619584D01*
X1995100Y1619195D02*
Y1619811D01*
X1995200Y1619355D02*
Y1620120D01*
X1995300Y1619676D02*
Y1620439D01*
X1995400Y1619997D02*
Y1620757D01*
X1995500Y1620319D02*
Y1621076D01*
X1995600Y1620640D02*
Y1621395D01*
X1995700Y1620961D02*
Y1621714D01*
X1995800Y1621282D02*
Y1621988D01*
X1995900Y1621603D02*
Y1621988D01*
X1996000Y1621601D02*
Y1621988D01*
X1996100Y1619195D02*
Y1621988D01*
X1996200Y1619195D02*
Y1621988D01*
X1996300Y1619195D02*
Y1621988D01*
X1996900Y1620039D02*
Y1620260D01*
X1997000Y1620039D02*
Y1620260D01*
X1997100Y1620039D02*
Y1620260D01*
X1997200Y1620039D02*
Y1620260D01*
X1997300Y1620039D02*
Y1620260D01*
X1997400Y1620039D02*
Y1620260D01*
X1997500Y1620039D02*
Y1620260D01*
X1997600Y1620039D02*
Y1620260D01*
X1997700Y1620039D02*
Y1620260D01*
X1998300Y1619878D02*
Y1620140D01*
X1998400Y1619878D02*
Y1620140D01*
X1998500Y1619878D02*
Y1620140D01*
X1998600Y1619195D02*
Y1621948D01*
X1998700Y1619195D02*
Y1621948D01*
X1998800Y1619195D02*
Y1621919D01*
X1998900Y1619878D02*
Y1620140D01*
Y1621362D02*
Y1621786D01*
X1999000Y1619878D02*
Y1620140D01*
Y1621243D02*
Y1621654D01*
X1999100Y1619878D02*
Y1620140D01*
Y1621109D02*
Y1621522D01*
X1999200Y1619878D02*
Y1620140D01*
Y1620976D02*
Y1621389D01*
X1999300Y1619878D02*
Y1620140D01*
Y1620843D02*
Y1621257D01*
X1999400Y1619878D02*
Y1620140D01*
Y1620709D02*
Y1621125D01*
X1999500Y1619878D02*
Y1620140D01*
Y1620576D02*
Y1620992D01*
X1999600Y1619878D02*
Y1620140D01*
Y1620443D02*
Y1620860D01*
X1999700Y1619878D02*
Y1620140D01*
Y1620309D02*
Y1620728D01*
X1999800Y1619878D02*
Y1620595D01*
X1999900Y1619878D02*
Y1620463D01*
X2000000Y1619878D02*
Y1620331D01*
X2000100Y1619878D02*
Y1620198D01*
X2000500Y1619815D02*
Y1620220D01*
X2000600Y1619536D02*
Y1620429D01*
Y1621087D02*
Y1621601D01*
X2000700Y1619374D02*
Y1620529D01*
Y1620935D02*
Y1621721D01*
X2000800Y1619312D02*
Y1619680D01*
Y1620267D02*
Y1620590D01*
Y1620850D02*
Y1621823D01*
X2000900Y1619249D02*
Y1619549D01*
Y1620429D02*
Y1620640D01*
Y1620790D02*
Y1621012D01*
Y1621563D02*
Y1621889D01*
X2001000Y1619192D02*
Y1619474D01*
Y1620504D02*
Y1620924D01*
Y1621666D02*
Y1621951D01*
X2001100Y1619181D02*
Y1619415D01*
Y1620563D02*
Y1620874D01*
Y1621716D02*
Y1621962D01*
X2001200Y1619170D02*
Y1619398D01*
Y1620580D02*
Y1620849D01*
Y1621741D02*
Y1621973D01*
X2001300Y1619159D02*
Y1619381D01*
Y1620596D02*
Y1620829D01*
Y1621761D02*
Y1621984D01*
X2001400Y1619163D02*
Y1619376D01*
Y1620591D02*
Y1620835D01*
Y1621754D02*
Y1621980D01*
X2001500Y1619174D02*
Y1619377D01*
Y1620574D02*
Y1620855D01*
Y1621734D02*
Y1621969D01*
X2001600Y1619185D02*
Y1619436D01*
Y1620555D02*
Y1620890D01*
Y1621700D02*
Y1621958D01*
X2001700Y1619207D02*
Y1619493D01*
Y1620480D02*
Y1620677D01*
Y1620747D02*
Y1620940D01*
Y1621650D02*
Y1621935D01*
X2001800Y1619269D02*
Y1619543D01*
Y1620381D02*
Y1620638D01*
Y1620809D02*
Y1621059D01*
Y1621530D02*
Y1621868D01*
X2001900Y1619332D02*
Y1619683D01*
Y1620214D02*
Y1620605D01*
Y1620869D02*
Y1621802D01*
X2002000Y1619417D02*
Y1620538D01*
Y1620966D02*
Y1621683D01*
X2002100Y1619592D02*
Y1620426D01*
Y1621180D02*
Y1621507D01*
X2002200Y1619957D02*
Y1620035D01*
X2002800Y1619687D02*
Y1620474D01*
Y1621314D02*
Y1621467D01*
X2002900Y1619485D02*
Y1620649D01*
Y1621303D02*
Y1621661D01*
X2003000Y1619371D02*
Y1619868D01*
Y1620271D02*
Y1620761D01*
Y1621292D02*
Y1621781D01*
X2003100Y1619291D02*
Y1619627D01*
Y1620511D02*
Y1620833D01*
Y1621522D02*
Y1621856D01*
X2003200Y1619246D02*
Y1619518D01*
Y1620620D02*
Y1620904D01*
Y1621632D02*
Y1621923D01*
X2003300Y1619212D02*
Y1619458D01*
Y1620680D02*
Y1620931D01*
Y1621707D02*
Y1621957D01*
X2003400Y1619186D02*
Y1619412D01*
Y1620725D02*
Y1620956D01*
Y1621739D02*
Y1621970D01*
X2003500Y1619170D02*
Y1619392D01*
Y1620742D02*
Y1620981D01*
Y1621759D02*
Y1621982D01*
X2003600Y1619155D02*
Y1619376D01*
Y1620759D02*
Y1620963D01*
Y1621754D02*
Y1621976D01*
X2003700Y1619155D02*
Y1619376D01*
Y1620750D02*
Y1620943D01*
Y1621729D02*
Y1621956D01*
X2003800Y1619165D02*
Y1619379D01*
Y1620733D02*
Y1620923D01*
Y1621704D02*
Y1621936D01*
X2003900Y1619205D02*
Y1619443D01*
Y1620709D02*
Y1620895D01*
Y1621672D02*
Y1621916D01*
X2004000Y1619248D02*
Y1619515D01*
Y1620649D02*
Y1620820D01*
Y1621572D02*
Y1621854D01*
X2004100Y1619298D02*
Y1619590D01*
Y1620588D02*
Y1620711D01*
Y1621426D02*
Y1621779D01*
X2004200Y1619390D02*
Y1619755D01*
Y1620426D02*
Y1620590D01*
Y1621152D02*
Y1621704D01*
X2004300Y1619511D02*
Y1621577D01*
X2004400Y1619701D02*
Y1621391D01*
X2004500Y1620021D02*
Y1620856D01*
X2005000Y1619815D02*
Y1620220D01*
X2005100Y1619536D02*
Y1620429D01*
Y1621087D02*
Y1621601D01*
X2005200Y1619374D02*
Y1620529D01*
Y1620935D02*
Y1621721D01*
X2005300Y1619312D02*
Y1619680D01*
Y1620267D02*
Y1620590D01*
Y1620850D02*
Y1621823D01*
X2005400Y1619249D02*
Y1619549D01*
Y1620429D02*
Y1620640D01*
Y1620790D02*
Y1621012D01*
Y1621563D02*
Y1621889D01*
X2005500Y1619192D02*
Y1619474D01*
Y1620504D02*
Y1620924D01*
Y1621666D02*
Y1621951D01*
X2005600Y1619181D02*
Y1619415D01*
Y1620563D02*
Y1620874D01*
Y1621716D02*
Y1621962D01*
X2005700Y1619170D02*
Y1619398D01*
Y1620580D02*
Y1620849D01*
Y1621741D02*
Y1621973D01*
X2005800Y1619159D02*
Y1619381D01*
Y1620596D02*
Y1620829D01*
Y1621761D02*
Y1621984D01*
X2005900Y1619163D02*
Y1619376D01*
Y1620591D02*
Y1620835D01*
Y1621754D02*
Y1621980D01*
X2006000Y1619174D02*
Y1619377D01*
Y1620574D02*
Y1620855D01*
Y1621734D02*
Y1621969D01*
X2006100Y1619185D02*
Y1619436D01*
Y1620555D02*
Y1620890D01*
Y1621700D02*
Y1621958D01*
X2006200Y1619207D02*
Y1619493D01*
Y1620480D02*
Y1620677D01*
Y1620747D02*
Y1620940D01*
Y1621650D02*
Y1621935D01*
X2006300Y1619269D02*
Y1619543D01*
Y1620381D02*
Y1620638D01*
Y1620809D02*
Y1621059D01*
Y1621530D02*
Y1621868D01*
X2006400Y1619332D02*
Y1619683D01*
Y1620214D02*
Y1620605D01*
Y1620869D02*
Y1621802D01*
X2006500Y1619417D02*
Y1620538D01*
Y1620966D02*
Y1621683D01*
X2006600Y1619592D02*
Y1620426D01*
Y1621180D02*
Y1621507D01*
X2006700Y1619957D02*
Y1620035D01*
X2007300Y1620819D02*
Y1621592D01*
X2007400Y1620679D02*
Y1621725D01*
X2007500Y1620563D02*
Y1621825D01*
X2007600Y1620494D02*
Y1620900D01*
Y1621542D02*
Y1621864D01*
X2007700Y1620454D02*
Y1620748D01*
Y1621644D02*
Y1621897D01*
X2007800Y1620426D02*
Y1620708D01*
Y1621701D02*
Y1621931D01*
X2007900Y1620406D02*
Y1620668D01*
Y1621735D02*
Y1621960D01*
X2008000Y1620400D02*
Y1620651D01*
Y1621766D02*
Y1621985D01*
X2008100Y1620400D02*
Y1620636D01*
Y1621767D02*
Y1621988D01*
X2008200Y1620400D02*
Y1620622D01*
Y1621767D02*
Y1621988D01*
X2008300Y1620400D02*
Y1620622D01*
Y1621767D02*
Y1621988D01*
X2008400Y1620400D02*
Y1620622D01*
Y1621767D02*
Y1621988D01*
X2008500Y1620400D02*
Y1620622D01*
Y1621767D02*
Y1621988D01*
X2008600Y1620400D02*
Y1620622D01*
Y1621767D02*
Y1621988D01*
X2008700Y1620400D02*
Y1620622D01*
Y1621767D02*
Y1621988D01*
X2008800Y1620400D02*
Y1620622D01*
Y1621767D02*
Y1621988D01*
X2008900Y1620400D02*
Y1620622D01*
Y1621767D02*
Y1621988D01*
X2009000Y1619195D02*
Y1621988D01*
X2009100Y1619195D02*
Y1621988D01*
X2009200Y1619195D02*
Y1621988D01*
X2010000Y1619613D02*
Y1620325D01*
Y1621284D02*
Y1621336D01*
X2010100Y1619468D02*
Y1620447D01*
Y1621284D02*
Y1621653D01*
X2010200Y1619369D02*
Y1620529D01*
Y1621284D02*
Y1621753D01*
X2010300Y1619319D02*
Y1619631D01*
Y1620188D02*
Y1620579D01*
Y1621333D02*
Y1621824D01*
X2010400Y1619270D02*
Y1619538D01*
Y1620319D02*
Y1620628D01*
Y1621572D02*
Y1621874D01*
X2010500Y1619236D02*
Y1619488D01*
Y1620369D02*
Y1620661D01*
Y1621672D02*
Y1621920D01*
X2010600Y1619203D02*
Y1619450D01*
Y1620408D02*
Y1620694D01*
Y1621716D02*
Y1621953D01*
Y1635603D02*
Y1635983D01*
X2010700Y1619184D02*
Y1619428D01*
Y1620433D02*
Y1620720D01*
Y1621756D02*
Y1621987D01*
Y1635603D02*
Y1635983D01*
X2010800Y1619169D02*
Y1619406D01*
Y1620458D02*
Y1620742D01*
Y1621778D02*
Y1622001D01*
Y1635603D02*
Y1635983D01*
X2010900Y1619156D02*
Y1619383D01*
Y1620483D02*
Y1620764D01*
Y1621795D02*
Y1622013D01*
Y1635603D02*
Y1635983D01*
X2011000Y1619167D02*
Y1619376D01*
Y1620508D02*
Y1620788D01*
Y1621804D02*
Y1622026D01*
Y1635603D02*
Y1635983D01*
X2011100Y1619178D02*
Y1619376D01*
Y1620533D02*
Y1620828D01*
Y1621790D02*
Y1622016D01*
Y1633863D02*
Y1634183D01*
Y1635603D02*
Y1635983D01*
X2011200Y1619189D02*
Y1619397D01*
Y1620558D02*
Y1620867D01*
Y1621775D02*
Y1622002D01*
Y1633863D02*
Y1634183D01*
Y1635603D02*
Y1635983D01*
X2011300Y1619207D02*
Y1619437D01*
Y1620583D02*
Y1620892D01*
Y1621754D02*
Y1621985D01*
Y1633863D02*
Y1634183D01*
Y1635603D02*
Y1635983D01*
X2011400Y1619232D02*
Y1619490D01*
Y1620622D02*
Y1620921D01*
Y1621714D02*
Y1621951D01*
Y1633863D02*
Y1634183D01*
Y1635603D02*
Y1635983D01*
X2011500Y1619257D02*
Y1619565D01*
Y1620682D02*
Y1620964D01*
Y1621665D02*
Y1621918D01*
Y1633863D02*
Y1634183D01*
Y1635603D02*
Y1635983D01*
X2011600Y1619299D02*
Y1619657D01*
Y1620742D02*
Y1621104D01*
Y1621532D02*
Y1621863D01*
Y1633863D02*
Y1634183D01*
Y1635603D02*
Y1635983D01*
X2011700Y1619366D02*
Y1619813D01*
Y1620802D02*
Y1621803D01*
Y1633863D02*
Y1634183D01*
Y1635603D02*
Y1635983D01*
X2011800Y1619440D02*
Y1620100D01*
Y1620883D02*
Y1621707D01*
Y1633863D02*
Y1634183D01*
Y1635603D02*
Y1635983D01*
X2011900Y1619565D02*
Y1620100D01*
Y1621022D02*
Y1621545D01*
Y1633863D02*
Y1634183D01*
Y1635603D02*
Y1635983D01*
X2012000Y1619757D02*
Y1620100D01*
Y1633863D02*
Y1634183D01*
Y1635603D02*
Y1635983D01*
X2012100Y1633863D02*
Y1634183D01*
Y1635603D02*
Y1635983D01*
X2012200Y1633863D02*
Y1634183D01*
Y1635603D02*
Y1635983D01*
X2012300Y1633863D02*
Y1634183D01*
Y1635603D02*
Y1635983D01*
X2012400Y1633863D02*
Y1634183D01*
Y1635603D02*
Y1635983D01*
X2012500Y1632063D02*
Y1635983D01*
X2012600Y1619195D02*
Y1619417D01*
Y1632063D02*
Y1635983D01*
X2012700Y1619195D02*
Y1619417D01*
Y1621767D02*
Y1621988D01*
Y1632063D02*
Y1635983D01*
X2012800Y1619195D02*
Y1619417D01*
Y1620521D02*
Y1620742D01*
Y1621767D02*
Y1621988D01*
Y1632063D02*
Y1635983D01*
X2012900Y1619195D02*
Y1619417D01*
Y1620521D02*
Y1620742D01*
Y1621767D02*
Y1621988D01*
Y1632063D02*
Y1635983D01*
X2013000Y1619195D02*
Y1619417D01*
Y1620521D02*
Y1620742D01*
Y1621767D02*
Y1621988D01*
X2013100Y1619195D02*
Y1619417D01*
Y1620521D02*
Y1620742D01*
Y1621767D02*
Y1621988D01*
X2013200Y1619195D02*
Y1619417D01*
Y1620521D02*
Y1620742D01*
Y1621767D02*
Y1621988D01*
X2013300Y1619195D02*
Y1619417D01*
Y1620521D02*
Y1620742D01*
Y1621767D02*
Y1621988D01*
X2013400Y1619195D02*
Y1619417D01*
Y1620521D02*
Y1620742D01*
Y1621767D02*
Y1621988D01*
X2013500Y1619195D02*
Y1619417D01*
Y1620521D02*
Y1620742D01*
Y1621767D02*
Y1621988D01*
X2013600Y1619195D02*
Y1619417D01*
Y1620521D02*
Y1620742D01*
Y1621767D02*
Y1621988D01*
X2013700Y1619195D02*
Y1619417D01*
Y1620521D02*
Y1620742D01*
Y1621767D02*
Y1621988D01*
Y1632063D02*
Y1635983D01*
X2013800Y1619195D02*
Y1619417D01*
Y1620521D02*
Y1620742D01*
Y1621767D02*
Y1621988D01*
Y1632063D02*
Y1635983D01*
X2013900Y1619195D02*
Y1619417D01*
Y1620521D02*
Y1620742D01*
Y1621767D02*
Y1621988D01*
Y1632063D02*
Y1635983D01*
X2014000Y1619195D02*
Y1619417D01*
Y1620521D02*
Y1620742D01*
Y1621767D02*
Y1621988D01*
Y1632063D02*
Y1635983D01*
X2014100Y1619195D02*
Y1619417D01*
Y1620521D02*
Y1620742D01*
Y1621767D02*
Y1621988D01*
Y1633923D02*
Y1634303D01*
X2014200Y1619195D02*
Y1619417D01*
Y1620521D02*
Y1620742D01*
Y1621767D02*
Y1621988D01*
Y1633923D02*
Y1634303D01*
X2014300Y1619195D02*
Y1619417D01*
Y1620521D02*
Y1620742D01*
Y1621767D02*
Y1621988D01*
Y1633923D02*
Y1634303D01*
X2014400Y1619195D02*
Y1621988D01*
Y1633923D02*
Y1634303D01*
X2014500Y1619195D02*
Y1621988D01*
Y1633923D02*
Y1634303D01*
X2014600Y1619195D02*
Y1621988D01*
Y1633923D02*
Y1634303D01*
X2014700Y1633923D02*
Y1634303D01*
X2014800Y1633923D02*
Y1634303D01*
X2014900Y1633923D02*
Y1634303D01*
X2015000Y1633923D02*
Y1634303D01*
X2015100Y1633923D02*
Y1634303D01*
X2015200Y1633923D02*
Y1634303D01*
X2015300Y1633923D02*
Y1634303D01*
X2015400Y1633923D02*
Y1634303D01*
X2015500Y1633915D02*
Y1634311D01*
X2015600Y1632063D02*
Y1635983D01*
X2015700Y1632063D02*
Y1635983D01*
X2015800Y1632063D02*
Y1635983D01*
X2015900Y1632063D02*
Y1635983D01*
*
G04 PC Custom Flashes*
G04 Layer Name PCB_ESP8684-MINI-1_V1.0 - flashes*
%LPD*%
*
*
G04 PC Circuitry*
G04 Layer Name PCB_ESP8684-MINI-1_V1.0 - circuitry*
%LPD*%
*
G54D10*
G54D24*
X2002117Y1628543D02*
Y1623303D01*
X2014716*
Y1628543*
X2002117*
X1968504Y1640157D02*
X2020472D01*
Y1574803*
X1968504*
Y1640157*
G54D55*
X2016535Y1618898D02*
X2020472D01*
X1972441D02*
X1968504D01*
X1995182Y1625243D02*
X1995026Y1625294D01*
X1994681Y1625305*
X1994305Y1624941*
X1994198Y1624569*
X1994213Y1624338*
X1994282Y1624178*
X1991596Y1625007D02*
X1991759Y1625363D01*
X1992054Y1625554*
X1992364Y1625493*
X1992797Y1624964*
X1992927Y1624634*
X1992958Y1624377*
X1992893Y1624105*
X2020472Y1574803D02*
X1968504D01*
Y1640157*
X2020472*
Y1574803*
X1990847Y1637432D02*
X1988208Y1632726D01*
X1988596Y1632354*
X1989394Y1632116*
X1992182Y1631838*
X1993481Y1631532*
X1993772Y1630853*
X1994400Y1631301*
X1990847Y1637432*
X1995474Y1629426D02*
X1995071Y1629247D01*
X1995934Y1627713*
X1995437Y1625022*
X1994321Y1623885*
X1993753Y1623843*
X1993386Y1624305*
X1993429Y1625551*
X1993771Y1626054*
X1993895Y1627858*
X1993483Y1628459*
X1991841Y1627478*
X1992554Y1626695*
X1993037Y1626077*
X1993318Y1625689*
X1993330Y1624602*
X1993247Y1624283*
X1992919Y1623888*
X1992208Y1623904*
X1990066Y1626409*
X1984771Y1623324*
X1999131*
X1995474Y1629426*
X1981082Y1625233D02*
X1972010D01*
Y1623337*
X1981082*
Y1625233*
X1983966Y1625374D02*
X1986474Y1629826D01*
X1986871Y1629154*
X1987106Y1628652*
X1987368Y1628411*
X1988183Y1627850*
X1983966Y1625374*
X1993618Y1631212D02*
X1994274D01*
X1993313Y1631572D02*
X1994243D01*
X1991240Y1631932D02*
X1994034D01*
X1988806Y1632292D02*
X1993826D01*
X1988285Y1632652D02*
X1993617D01*
X1988368Y1633012D02*
X1993408D01*
X1988570Y1633372D02*
X1993200D01*
X1988772Y1633732D02*
X1992991D01*
X1988974Y1634092D02*
X1992783D01*
X1989176Y1634452D02*
X1992574D01*
X1989378Y1634812D02*
X1992365D01*
X1989580Y1635172D02*
X1992157D01*
X1989781Y1635532D02*
X1991948D01*
X1989983Y1635892D02*
X1991739D01*
X1990185Y1636252D02*
X1991531D01*
X1990387Y1636612D02*
X1991322D01*
X1990589Y1636972D02*
X1991114D01*
X1990791Y1637332D02*
X1990905D01*
X1985387Y1623682D02*
X1998916D01*
X1994476Y1624042D02*
X1998700D01*
X1994829Y1624402D02*
X1998485D01*
X1995182Y1624762D02*
X1998269D01*
X1995456Y1625122D02*
X1998053D01*
X1995522Y1625482D02*
X1997837D01*
X1995589Y1625842D02*
X1997622D01*
X1995655Y1626202D02*
X1997406D01*
X1995722Y1626562D02*
X1997190D01*
X1995788Y1626922D02*
X1996974D01*
X1995855Y1627282D02*
X1996759D01*
X1995921Y1627642D02*
X1996543D01*
X1995771Y1628002D02*
X1996327D01*
X1995569Y1628362D02*
X1996111D01*
X1995366Y1628722D02*
X1995896D01*
X1995164Y1629082D02*
X1995680D01*
X1992115Y1627642D02*
X1993880D01*
X1992019Y1627282D02*
X1993855D01*
X1992347Y1626922D02*
X1993830D01*
X1992658Y1626562D02*
X1993806D01*
X1992718Y1628002D02*
X1993796D01*
X1992939Y1626202D02*
X1993781D01*
X1993207Y1625842D02*
X1993627D01*
X1993047Y1624042D02*
X1993595D01*
X1993321Y1628362D02*
X1993549D01*
X1993320Y1625482D02*
X1993426D01*
X1993324Y1625122D02*
X1993414D01*
X1993328Y1624762D02*
X1993402D01*
X1993278Y1624402D02*
X1993390D01*
X1986004Y1624042D02*
X1992090D01*
X1986622Y1624402D02*
X1991782D01*
X1987240Y1624762D02*
X1991474D01*
X1987858Y1625122D02*
X1991166D01*
X1988476Y1625482D02*
X1990858D01*
X1989093Y1625842D02*
X1990550D01*
X1989711Y1626202D02*
X1990243D01*
X1972010Y1625136D02*
X1981082D01*
X1972010Y1624776D02*
X1981082D01*
X1972010Y1624416D02*
X1981082D01*
X1972010Y1624056D02*
X1981082D01*
X1972010Y1623696D02*
X1981082D01*
X1985385Y1627893D02*
X1988120D01*
X1985182Y1627533D02*
X1987643D01*
X1985588Y1628253D02*
X1987598D01*
X1985791Y1628613D02*
X1987149D01*
X1984979Y1627173D02*
X1987030D01*
X1985993Y1628973D02*
X1986956D01*
X1986196Y1629333D02*
X1986765D01*
X1986399Y1629693D02*
X1986552D01*
X1984777Y1626813D02*
X1986417D01*
X1984574Y1626453D02*
X1985803D01*
X1984371Y1626093D02*
X1985190D01*
X1984168Y1625733D02*
X1984577D01*
G54D93*
X2017776Y1634132D02*
G75*
G03X2017776I-4344J0D01*
G01X2006736Y1634063D02*
G03X2006736I-4344J0D01*
G01X2004540Y1634023D02*
X2003658D01*
Y1636303D02*
G03Y1634023I-0J-1140D01*
G01Y1636303D02*
X2004540D01*
Y1634023*
X2001312Y1636303D02*
Y1634471D01*
X2001313Y1634491D02*
G03X1999949Y1634477I-662J-1880D01*
Y1632263I644J-1107*
G01X2001312*
Y1634491*
X2005136Y1636868D02*
X1998817Y1630605D01*
X2004540Y1632263D02*
Y1634023D01*
G54D407*
X1975292Y1629123D02*
G03X1975292I-208J0D01*
G01X1973868Y1635659D02*
X1973340D01*
G03Y1635091I125J-284*
G01X1973924*
X1973164Y1637443D02*
X1973252Y1637611D01*
X1973364Y1637675*
X1973532Y1637667*
X1973612Y1637595*
X1973676Y1637523*
X1973684Y1637435*
Y1637267*
X1979732Y1636907D02*
X1979196Y1637235D01*
X1978796Y1637435*
X1978356Y1637555*
X1977884Y1637667*
X1977268Y1637755*
X1976804Y1637795*
X1976196Y1637779*
X1975612Y1637739*
X1975020Y1637643*
X1974524Y1637531*
X1974004Y1637363*
X1973548Y1637147*
X1973452Y1637083*
X1979436Y1636779D02*
X1973716D01*
X1977444Y1637827D02*
X1977420Y1638067D01*
X1977308Y1638163*
X1976660Y1638195*
X1976196*
X1975980Y1638099*
X1975892Y1638019*
Y1637779*
X1978988Y1637507D02*
Y1638003D01*
X1977132Y1634531D02*
G03X1977172Y1634899I-5J187D01*
G01X1977132Y1634531D02*
X1975863D01*
X1975911Y1634939D02*
G03X1975863Y1634531I-35J-203D01*
G01X1975911Y1634939D02*
X1977164D01*
X1975884Y1629123D02*
G03X1975884I-792J0D01*
G01X1978740Y1628803D02*
Y1628259D01*
X1978124*
Y1628827*
X1976132Y1628987D02*
X1978996D01*
X1979708Y1636907*
X1981324Y1638451D02*
X1971892Y1628459D01*
X1973868Y1636683D02*
X1974732Y1630099D01*
X1981132Y1628179D02*
X1971932Y1638571D01*
G74*
X0Y0D02*
M02*
