*
*
G04 PADS VX.2 Build Number: 5060570 generated Gerber (RS-274-X) file*
G04 PC Version=2.1*
*
%IN "PCB_ESP8684-MINI-1_V1.0"*%
*
%MOIN*%
*
%FSLAX35Y35*%
*
*
*
*
G04 PC Standard Apertures*
*
*
G04 Thermal Relief Aperture macro.*
%AMTER*
1,1,$1,0,0*
1,0,$1-$2,0,0*
21,0,$3,$4,0,0,45*
21,0,$3,$4,0,0,135*
%
*
*
G04 Annular Aperture macro.*
%AMANN*
1,1,$1,0,0*
1,0,$2,0,0*
%
*
*
G04 Odd Aperture macro.*
%AMODD*
1,1,$1,0,0*
1,0,$1-0.005,0,0*
%
*
*
G04 PC Custom Aperture Macros*
*
*
*
*
*
*
G04 PC Aperture Table*
*
%ADD010C,0.001*%
%ADD024C,0.005*%
%ADD025C,0.006*%
%ADD031C,0.00394*%
%ADD036C,0.02362*%
%ADD347R,0.02956X0.01775*%
%ADD348C,0.01775*%
%ADD399C,0.01302*%
%ADD409C,0.00436*%
*
*
*
*
G04 PC Circuitry*
G04 Layer Name PCB_ESP8684-MINI-1_V1.0 - circuitry*
%LPD*%
*
*
G04 PC Custom Flashes*
G04 Layer Name PCB_ESP8684-MINI-1_V1.0 - flashes*
%LPD*%
*
*
G04 PC Circuitry*
G04 Layer Name PCB_ESP8684-MINI-1_V1.0 - circuitry*
%LPD*%
*
G54D10*
G01X1990404Y1602869D02*
X1986993Y1599457D01*
X1990404Y1596046*
X1993815Y1599457*
X1990404Y1602869*
X1990347Y1596103D02*
X1990461D01*
X1990247Y1596203D02*
X1990561D01*
X1990147Y1596303D02*
X1990661D01*
X1990047Y1596403D02*
X1990761D01*
X1989947Y1596503D02*
X1990861D01*
X1989847Y1596603D02*
X1990961D01*
X1989747Y1596703D02*
X1991061D01*
X1989647Y1596803D02*
X1991161D01*
X1989547Y1596903D02*
X1991261D01*
X1989447Y1597003D02*
X1991361D01*
X1989347Y1597103D02*
X1991461D01*
X1989247Y1597203D02*
X1991561D01*
X1989147Y1597303D02*
X1991661D01*
X1989047Y1597403D02*
X1991761D01*
X1988947Y1597503D02*
X1991861D01*
X1988847Y1597603D02*
X1991961D01*
X1988747Y1597703D02*
X1992061D01*
X1988647Y1597803D02*
X1992161D01*
X1988547Y1597903D02*
X1992261D01*
X1988447Y1598003D02*
X1992361D01*
X1988347Y1598103D02*
X1992461D01*
X1988247Y1598203D02*
X1992561D01*
X1988147Y1598303D02*
X1992661D01*
X1988047Y1598403D02*
X1992761D01*
X1987947Y1598503D02*
X1992861D01*
X1987847Y1598603D02*
X1992961D01*
X1987747Y1598703D02*
X1993061D01*
X1987647Y1598803D02*
X1993161D01*
X1987547Y1598903D02*
X1993261D01*
X1987447Y1599003D02*
X1993361D01*
X1987347Y1599103D02*
X1993461D01*
X1987247Y1599203D02*
X1993561D01*
X1987147Y1599303D02*
X1993661D01*
X1987047Y1599403D02*
X1993761D01*
X1987038Y1599503D02*
X1993770D01*
X1987138Y1599603D02*
X1993670D01*
X1987238Y1599703D02*
X1993570D01*
X1987338Y1599803D02*
X1993470D01*
X1987438Y1599903D02*
X1993370D01*
X1987538Y1600003D02*
X1993270D01*
X1987638Y1600103D02*
X1993170D01*
X1987738Y1600203D02*
X1993070D01*
X1987838Y1600303D02*
X1992970D01*
X1987938Y1600403D02*
X1992870D01*
X1988038Y1600503D02*
X1992770D01*
X1988138Y1600603D02*
X1992670D01*
X1988238Y1600703D02*
X1992570D01*
X1988338Y1600803D02*
X1992470D01*
X1988438Y1600903D02*
X1992370D01*
X1988538Y1601003D02*
X1992270D01*
X1988638Y1601103D02*
X1992170D01*
X1988738Y1601203D02*
X1992070D01*
X1988838Y1601303D02*
X1991970D01*
X1988938Y1601403D02*
X1991870D01*
X1989038Y1601503D02*
X1991770D01*
X1989138Y1601603D02*
X1991670D01*
X1989238Y1601703D02*
X1991570D01*
X1989338Y1601803D02*
X1991470D01*
X1989438Y1601903D02*
X1991370D01*
X1989538Y1602003D02*
X1991270D01*
X1989638Y1602103D02*
X1991170D01*
X1989738Y1602203D02*
X1991070D01*
X1989838Y1602303D02*
X1990970D01*
X1989938Y1602403D02*
X1990870D01*
X1990038Y1602503D02*
X1990770D01*
X1990138Y1602603D02*
X1990670D01*
X1990238Y1602703D02*
X1990570D01*
X1990338Y1602803D02*
X1990470D01*
X1987004Y1599446D02*
Y1599469D01*
X1987104Y1599346D02*
Y1599569D01*
X1987204Y1599246D02*
Y1599669D01*
X1987304Y1599146D02*
Y1599769D01*
X1987404Y1599046D02*
Y1599869D01*
X1987504Y1598946D02*
Y1599969D01*
X1987604Y1598846D02*
Y1600069D01*
X1987704Y1598746D02*
Y1600169D01*
X1987804Y1598646D02*
Y1600269D01*
X1987904Y1598546D02*
Y1600369D01*
X1988004Y1598446D02*
Y1600469D01*
X1988104Y1598346D02*
Y1600569D01*
X1988204Y1598246D02*
Y1600669D01*
X1988304Y1598146D02*
Y1600769D01*
X1988404Y1598046D02*
Y1600869D01*
X1988504Y1597946D02*
Y1600969D01*
X1988604Y1597846D02*
Y1601069D01*
X1988704Y1597746D02*
Y1601169D01*
X1988804Y1597646D02*
Y1601269D01*
X1988904Y1597546D02*
Y1601369D01*
X1989004Y1597446D02*
Y1601469D01*
X1989104Y1597346D02*
Y1601569D01*
X1989204Y1597246D02*
Y1601669D01*
X1989304Y1597146D02*
Y1601769D01*
X1989404Y1597046D02*
Y1601869D01*
X1989504Y1596946D02*
Y1601969D01*
X1989604Y1596846D02*
Y1602069D01*
X1989704Y1596746D02*
Y1602169D01*
X1989804Y1596646D02*
Y1602269D01*
X1989904Y1596546D02*
Y1602369D01*
X1990004Y1596446D02*
Y1602469D01*
X1990104Y1596346D02*
Y1602569D01*
X1990204Y1596246D02*
Y1602669D01*
X1990304Y1596146D02*
Y1602769D01*
X1990404Y1596046D02*
Y1602869D01*
X1990504Y1596146D02*
Y1602769D01*
X1990604Y1596246D02*
Y1602669D01*
X1990704Y1596346D02*
Y1602569D01*
X1990804Y1596446D02*
Y1602469D01*
X1990904Y1596546D02*
Y1602369D01*
X1991004Y1596646D02*
Y1602269D01*
X1991104Y1596746D02*
Y1602169D01*
X1991204Y1596846D02*
Y1602069D01*
X1991304Y1596946D02*
Y1601969D01*
X1991404Y1597046D02*
Y1601869D01*
X1991504Y1597146D02*
Y1601769D01*
X1991604Y1597246D02*
Y1601669D01*
X1991704Y1597346D02*
Y1601569D01*
X1991804Y1597446D02*
Y1601469D01*
X1991904Y1597546D02*
Y1601369D01*
X1992004Y1597646D02*
Y1601269D01*
X1992104Y1597746D02*
Y1601169D01*
X1992204Y1597846D02*
Y1601069D01*
X1992304Y1597946D02*
Y1600969D01*
X1992404Y1598046D02*
Y1600869D01*
X1992504Y1598146D02*
Y1600769D01*
X1992604Y1598246D02*
Y1600669D01*
X1992704Y1598346D02*
Y1600569D01*
X1992804Y1598446D02*
Y1600469D01*
X1992904Y1598546D02*
Y1600369D01*
X1993004Y1598646D02*
Y1600269D01*
X1993104Y1598746D02*
Y1600169D01*
X1993204Y1598846D02*
Y1600069D01*
X1993304Y1598946D02*
Y1599969D01*
X1993404Y1599046D02*
Y1599869D01*
X1993504Y1599146D02*
Y1599769D01*
X1993604Y1599246D02*
Y1599669D01*
X1993704Y1599346D02*
Y1599569D01*
X1993804Y1599446D02*
Y1599469D01*
X2004034Y1605882D02*
X2002293Y1607623D01*
X2000831Y1606160*
X2002572Y1604419*
X2004034Y1605882*
X2002487Y1604503D02*
X2002656D01*
X2002387Y1604603D02*
X2002756D01*
X2002287Y1604703D02*
X2002856D01*
X2002187Y1604803D02*
X2002956D01*
X2002087Y1604903D02*
X2003056D01*
X2001987Y1605003D02*
X2003156D01*
X2001887Y1605103D02*
X2003256D01*
X2001787Y1605203D02*
X2003356D01*
X2001687Y1605303D02*
X2003456D01*
X2001587Y1605403D02*
X2003556D01*
X2001487Y1605503D02*
X2003656D01*
X2001387Y1605603D02*
X2003756D01*
X2001287Y1605703D02*
X2003856D01*
X2001187Y1605803D02*
X2003956D01*
X2001087Y1605903D02*
X2004013D01*
X2000987Y1606003D02*
X2003913D01*
X2000887Y1606103D02*
X2003813D01*
X2000874Y1606203D02*
X2003713D01*
X2000974Y1606303D02*
X2003613D01*
X2001074Y1606403D02*
X2003513D01*
X2001174Y1606503D02*
X2003413D01*
X2001274Y1606603D02*
X2003313D01*
X2001374Y1606703D02*
X2003213D01*
X2001474Y1606803D02*
X2003113D01*
X2001574Y1606903D02*
X2003013D01*
X2001674Y1607003D02*
X2002913D01*
X2001774Y1607103D02*
X2002813D01*
X2001874Y1607203D02*
X2002713D01*
X2001974Y1607303D02*
X2002613D01*
X2002074Y1607403D02*
X2002513D01*
X2002174Y1607503D02*
X2002413D01*
X2002274Y1607603D02*
X2002313D01*
X2000904Y1606087D02*
Y1606233D01*
X2001004Y1605987D02*
Y1606333D01*
X2001104Y1605887D02*
Y1606433D01*
X2001204Y1605787D02*
Y1606533D01*
X2001304Y1605687D02*
Y1606633D01*
X2001404Y1605587D02*
Y1606733D01*
X2001504Y1605487D02*
Y1606833D01*
X2001604Y1605387D02*
Y1606933D01*
X2001704Y1605287D02*
Y1607033D01*
X2001804Y1605187D02*
Y1607133D01*
X2001904Y1605087D02*
Y1607233D01*
X2002004Y1604987D02*
Y1607333D01*
X2002104Y1604887D02*
Y1607433D01*
X2002204Y1604787D02*
Y1607533D01*
X2002304Y1604687D02*
Y1607612D01*
X2002404Y1604587D02*
Y1607512D01*
X2002504Y1604487D02*
Y1607412D01*
X2002604Y1604451D02*
Y1607312D01*
X2002704Y1604551D02*
Y1607212D01*
X2002804Y1604651D02*
Y1607112D01*
X2002904Y1604751D02*
Y1607012D01*
X2003004Y1604851D02*
Y1606912D01*
X2003104Y1604951D02*
Y1606812D01*
X2003204Y1605051D02*
Y1606712D01*
X2003304Y1605151D02*
Y1606612D01*
X2003404Y1605251D02*
Y1606512D01*
X2003504Y1605351D02*
Y1606412D01*
X2003604Y1605451D02*
Y1606312D01*
X2003704Y1605551D02*
Y1606212D01*
X2003804Y1605651D02*
Y1606112D01*
X2003904Y1605751D02*
Y1606012D01*
X2004004Y1605851D02*
Y1605912D01*
X2010437Y1600871D02*
X2007304Y1604004D01*
X2004450Y1601149*
X2007583Y1598016*
X2010437Y1600871*
X2007496Y1598103D02*
X2007670D01*
X2007396Y1598203D02*
X2007770D01*
X2007296Y1598303D02*
X2007870D01*
X2007196Y1598403D02*
X2007970D01*
X2007096Y1598503D02*
X2008070D01*
X2006996Y1598603D02*
X2008170D01*
X2006896Y1598703D02*
X2008270D01*
X2006796Y1598803D02*
X2008370D01*
X2006696Y1598903D02*
X2008470D01*
X2006596Y1599003D02*
X2008570D01*
X2006496Y1599103D02*
X2008670D01*
X2006396Y1599203D02*
X2008770D01*
X2006296Y1599303D02*
X2008870D01*
X2006196Y1599403D02*
X2008970D01*
X2006096Y1599503D02*
X2009070D01*
X2005996Y1599603D02*
X2009170D01*
X2005896Y1599703D02*
X2009270D01*
X2005796Y1599803D02*
X2009370D01*
X2005696Y1599903D02*
X2009470D01*
X2005596Y1600003D02*
X2009570D01*
X2005496Y1600103D02*
X2009670D01*
X2005396Y1600203D02*
X2009770D01*
X2005296Y1600303D02*
X2009870D01*
X2005196Y1600403D02*
X2009970D01*
X2005096Y1600503D02*
X2010070D01*
X2004996Y1600603D02*
X2010170D01*
X2004896Y1600703D02*
X2010270D01*
X2004796Y1600803D02*
X2010370D01*
X2004696Y1600903D02*
X2010405D01*
X2004596Y1601003D02*
X2010305D01*
X2004496Y1601103D02*
X2010205D01*
X2004504Y1601203D02*
X2010105D01*
X2004604Y1601303D02*
X2010005D01*
X2004704Y1601403D02*
X2009905D01*
X2004804Y1601503D02*
X2009805D01*
X2004904Y1601603D02*
X2009705D01*
X2005004Y1601703D02*
X2009605D01*
X2005104Y1601803D02*
X2009505D01*
X2005204Y1601903D02*
X2009405D01*
X2005304Y1602003D02*
X2009305D01*
X2005404Y1602103D02*
X2009205D01*
X2005504Y1602203D02*
X2009105D01*
X2005604Y1602303D02*
X2009005D01*
X2005704Y1602403D02*
X2008905D01*
X2005804Y1602503D02*
X2008805D01*
X2005904Y1602603D02*
X2008705D01*
X2006004Y1602703D02*
X2008605D01*
X2006104Y1602803D02*
X2008505D01*
X2006204Y1602903D02*
X2008405D01*
X2006304Y1603003D02*
X2008305D01*
X2006404Y1603103D02*
X2008205D01*
X2006504Y1603203D02*
X2008105D01*
X2006604Y1603303D02*
X2008005D01*
X2006704Y1603403D02*
X2007905D01*
X2006804Y1603503D02*
X2007805D01*
X2006904Y1603603D02*
X2007705D01*
X2007004Y1603703D02*
X2007605D01*
X2007104Y1603803D02*
X2007505D01*
X2007204Y1603903D02*
X2007405D01*
X2007304Y1604003D02*
X2007305D01*
X2004504Y1601095D02*
Y1601203D01*
X2004604Y1600995D02*
Y1601303D01*
X2004704Y1600895D02*
Y1601403D01*
X2004804Y1600795D02*
Y1601503D01*
X2004904Y1600695D02*
Y1601603D01*
X2005004Y1600595D02*
Y1601703D01*
X2005104Y1600495D02*
Y1601803D01*
X2005204Y1600395D02*
Y1601903D01*
X2005304Y1600295D02*
Y1602003D01*
X2005404Y1600195D02*
Y1602103D01*
X2005504Y1600095D02*
Y1602203D01*
X2005604Y1599995D02*
Y1602303D01*
X2005704Y1599895D02*
Y1602403D01*
X2005804Y1599795D02*
Y1602503D01*
X2005904Y1599695D02*
Y1602603D01*
X2006004Y1599595D02*
Y1602703D01*
X2006104Y1599495D02*
Y1602803D01*
X2006204Y1599395D02*
Y1602903D01*
X2006304Y1599295D02*
Y1603003D01*
X2006404Y1599195D02*
Y1603103D01*
X2006504Y1599095D02*
Y1603203D01*
X2006604Y1598995D02*
Y1603303D01*
X2006704Y1598895D02*
Y1603403D01*
X2006804Y1598795D02*
Y1603503D01*
X2006904Y1598695D02*
Y1603603D01*
X2007004Y1598595D02*
Y1603703D01*
X2007104Y1598495D02*
Y1603803D01*
X2007204Y1598395D02*
Y1603903D01*
X2007304Y1598295D02*
Y1604003D01*
X2007404Y1598195D02*
Y1603904D01*
X2007504Y1598095D02*
Y1603804D01*
X2007604Y1598037D02*
Y1603704D01*
X2007704Y1598137D02*
Y1603604D01*
X2007804Y1598237D02*
Y1603504D01*
X2007904Y1598337D02*
Y1603404D01*
X2008004Y1598437D02*
Y1603304D01*
X2008104Y1598537D02*
Y1603204D01*
X2008204Y1598637D02*
Y1603104D01*
X2008304Y1598737D02*
Y1603004D01*
X2008404Y1598837D02*
Y1602904D01*
X2008504Y1598937D02*
Y1602804D01*
X2008604Y1599037D02*
Y1602704D01*
X2008704Y1599137D02*
Y1602604D01*
X2008804Y1599237D02*
Y1602504D01*
X2008904Y1599337D02*
Y1602404D01*
X2009004Y1599437D02*
Y1602304D01*
X2009104Y1599537D02*
Y1602204D01*
X2009204Y1599637D02*
Y1602104D01*
X2009304Y1599737D02*
Y1602004D01*
X2009404Y1599837D02*
Y1601904D01*
X2009504Y1599937D02*
Y1601804D01*
X2009604Y1600037D02*
Y1601704D01*
X2009704Y1600137D02*
Y1601604D01*
X2009804Y1600237D02*
Y1601504D01*
X2009904Y1600337D02*
Y1601404D01*
X2010004Y1600437D02*
Y1601304D01*
X2010104Y1600537D02*
Y1601204D01*
X2010204Y1600637D02*
Y1601104D01*
X2010304Y1600737D02*
Y1601004D01*
X2010404Y1600837D02*
Y1600904D01*
X2014613Y1605046D02*
X2011480Y1608179D01*
X2008626Y1605325*
X2011759Y1602192*
X2014613Y1605046*
X2011747Y1602203D02*
X2011770D01*
X2011647Y1602303D02*
X2011870D01*
X2011547Y1602403D02*
X2011970D01*
X2011447Y1602503D02*
X2012070D01*
X2011347Y1602603D02*
X2012170D01*
X2011247Y1602703D02*
X2012270D01*
X2011147Y1602803D02*
X2012370D01*
X2011047Y1602903D02*
X2012470D01*
X2010947Y1603003D02*
X2012570D01*
X2010847Y1603103D02*
X2012670D01*
X2010747Y1603203D02*
X2012770D01*
X2010647Y1603303D02*
X2012870D01*
X2010547Y1603403D02*
X2012970D01*
X2010447Y1603503D02*
X2013070D01*
X2010347Y1603603D02*
X2013170D01*
X2010247Y1603703D02*
X2013270D01*
X2010147Y1603803D02*
X2013370D01*
X2010047Y1603903D02*
X2013470D01*
X2009947Y1604003D02*
X2013570D01*
X2009847Y1604103D02*
X2013670D01*
X2009747Y1604203D02*
X2013770D01*
X2009647Y1604303D02*
X2013870D01*
X2009547Y1604403D02*
X2013970D01*
X2009447Y1604503D02*
X2014070D01*
X2009347Y1604603D02*
X2014170D01*
X2009247Y1604703D02*
X2014270D01*
X2009147Y1604803D02*
X2014370D01*
X2009047Y1604903D02*
X2014470D01*
X2008947Y1605003D02*
X2014570D01*
X2008847Y1605103D02*
X2014556D01*
X2008747Y1605203D02*
X2014456D01*
X2008647Y1605303D02*
X2014356D01*
X2008704Y1605403D02*
X2014256D01*
X2008804Y1605503D02*
X2014156D01*
X2008904Y1605603D02*
X2014056D01*
X2009004Y1605703D02*
X2013956D01*
X2009104Y1605803D02*
X2013856D01*
X2009204Y1605903D02*
X2013756D01*
X2009304Y1606003D02*
X2013656D01*
X2009404Y1606103D02*
X2013556D01*
X2009504Y1606203D02*
X2013456D01*
X2009604Y1606303D02*
X2013356D01*
X2009704Y1606403D02*
X2013256D01*
X2009804Y1606503D02*
X2013156D01*
X2009904Y1606603D02*
X2013056D01*
X2010004Y1606703D02*
X2012956D01*
X2010104Y1606803D02*
X2012856D01*
X2010204Y1606903D02*
X2012756D01*
X2010304Y1607003D02*
X2012656D01*
X2010404Y1607103D02*
X2012556D01*
X2010504Y1607203D02*
X2012456D01*
X2010604Y1607303D02*
X2012356D01*
X2010704Y1607403D02*
X2012256D01*
X2010804Y1607503D02*
X2012156D01*
X2010904Y1607603D02*
X2012056D01*
X2011004Y1607703D02*
X2011956D01*
X2011104Y1607803D02*
X2011856D01*
X2011204Y1607903D02*
X2011756D01*
X2011304Y1608003D02*
X2011656D01*
X2011404Y1608103D02*
X2011556D01*
X2008704Y1605246D02*
Y1605403D01*
X2008804Y1605146D02*
Y1605503D01*
X2008904Y1605046D02*
Y1605603D01*
X2009004Y1604946D02*
Y1605703D01*
X2009104Y1604846D02*
Y1605803D01*
X2009204Y1604746D02*
Y1605903D01*
X2009304Y1604646D02*
Y1606003D01*
X2009404Y1604546D02*
Y1606103D01*
X2009504Y1604446D02*
Y1606203D01*
X2009604Y1604346D02*
Y1606303D01*
X2009704Y1604246D02*
Y1606403D01*
X2009804Y1604146D02*
Y1606503D01*
X2009904Y1604046D02*
Y1606603D01*
X2010004Y1603946D02*
Y1606703D01*
X2010104Y1603846D02*
Y1606803D01*
X2010204Y1603746D02*
Y1606903D01*
X2010304Y1603646D02*
Y1607003D01*
X2010404Y1603546D02*
Y1607103D01*
X2010504Y1603446D02*
Y1607203D01*
X2010604Y1603346D02*
Y1607303D01*
X2010704Y1603246D02*
Y1607403D01*
X2010804Y1603146D02*
Y1607503D01*
X2010904Y1603046D02*
Y1607603D01*
X2011004Y1602946D02*
Y1607703D01*
X2011104Y1602846D02*
Y1607803D01*
X2011204Y1602746D02*
Y1607903D01*
X2011304Y1602646D02*
Y1608003D01*
X2011404Y1602546D02*
Y1608103D01*
X2011504Y1602446D02*
Y1608156D01*
X2011604Y1602346D02*
Y1608056D01*
X2011704Y1602246D02*
Y1607956D01*
X2011804Y1602237D02*
Y1607856D01*
X2011904Y1602337D02*
Y1607756D01*
X2012004Y1602437D02*
Y1607656D01*
X2012104Y1602537D02*
Y1607556D01*
X2012204Y1602637D02*
Y1607456D01*
X2012304Y1602737D02*
Y1607356D01*
X2012404Y1602837D02*
Y1607256D01*
X2012504Y1602937D02*
Y1607156D01*
X2012604Y1603037D02*
Y1607056D01*
X2012704Y1603137D02*
Y1606956D01*
X2012804Y1603237D02*
Y1606856D01*
X2012904Y1603337D02*
Y1606756D01*
X2013004Y1603437D02*
Y1606656D01*
X2013104Y1603537D02*
Y1606556D01*
X2013204Y1603637D02*
Y1606456D01*
X2013304Y1603737D02*
Y1606356D01*
X2013404Y1603837D02*
Y1606256D01*
X2013504Y1603937D02*
Y1606156D01*
X2013604Y1604037D02*
Y1606056D01*
X2013704Y1604137D02*
Y1605956D01*
X2013804Y1604237D02*
Y1605856D01*
X2013904Y1604337D02*
Y1605756D01*
X2014004Y1604437D02*
Y1605656D01*
X2014104Y1604537D02*
Y1605556D01*
X2014204Y1604637D02*
Y1605456D01*
X2014304Y1604737D02*
Y1605356D01*
X2014404Y1604837D02*
Y1605256D01*
X2014504Y1604937D02*
Y1605156D01*
X2014604Y1605037D02*
Y1605056D01*
X2009602Y1610057D02*
X2006469Y1613190D01*
X2003615Y1610336*
X2006748Y1607203*
X2009602Y1610057*
X2006747Y1607203D02*
X2006748D01*
X2006647Y1607303D02*
X2006848D01*
X2006547Y1607403D02*
X2006948D01*
X2006447Y1607503D02*
X2007048D01*
X2006347Y1607603D02*
X2007148D01*
X2006247Y1607703D02*
X2007248D01*
X2006147Y1607803D02*
X2007348D01*
X2006047Y1607903D02*
X2007448D01*
X2005947Y1608003D02*
X2007548D01*
X2005847Y1608103D02*
X2007648D01*
X2005747Y1608203D02*
X2007748D01*
X2005647Y1608303D02*
X2007848D01*
X2005547Y1608403D02*
X2007948D01*
X2005447Y1608503D02*
X2008048D01*
X2005347Y1608603D02*
X2008148D01*
X2005247Y1608703D02*
X2008248D01*
X2005147Y1608803D02*
X2008348D01*
X2005047Y1608903D02*
X2008448D01*
X2004947Y1609003D02*
X2008548D01*
X2004847Y1609103D02*
X2008648D01*
X2004747Y1609203D02*
X2008748D01*
X2004647Y1609303D02*
X2008848D01*
X2004547Y1609403D02*
X2008948D01*
X2004447Y1609503D02*
X2009048D01*
X2004347Y1609603D02*
X2009148D01*
X2004247Y1609703D02*
X2009248D01*
X2004147Y1609803D02*
X2009348D01*
X2004047Y1609903D02*
X2009448D01*
X2003947Y1610003D02*
X2009548D01*
X2003847Y1610103D02*
X2009556D01*
X2003747Y1610203D02*
X2009456D01*
X2003647Y1610303D02*
X2009356D01*
X2003682Y1610403D02*
X2009256D01*
X2003782Y1610503D02*
X2009156D01*
X2003882Y1610603D02*
X2009056D01*
X2003982Y1610703D02*
X2008956D01*
X2004082Y1610803D02*
X2008856D01*
X2004182Y1610903D02*
X2008756D01*
X2004282Y1611003D02*
X2008656D01*
X2004382Y1611103D02*
X2008556D01*
X2004482Y1611203D02*
X2008456D01*
X2004582Y1611303D02*
X2008356D01*
X2004682Y1611403D02*
X2008256D01*
X2004782Y1611503D02*
X2008156D01*
X2004882Y1611603D02*
X2008056D01*
X2004982Y1611703D02*
X2007956D01*
X2005082Y1611803D02*
X2007856D01*
X2005182Y1611903D02*
X2007756D01*
X2005282Y1612003D02*
X2007656D01*
X2005382Y1612103D02*
X2007556D01*
X2005482Y1612203D02*
X2007456D01*
X2005582Y1612303D02*
X2007356D01*
X2005682Y1612403D02*
X2007256D01*
X2005782Y1612503D02*
X2007156D01*
X2005882Y1612603D02*
X2007056D01*
X2005982Y1612703D02*
X2006956D01*
X2006082Y1612803D02*
X2006856D01*
X2006182Y1612903D02*
X2006756D01*
X2006282Y1613003D02*
X2006656D01*
X2006382Y1613103D02*
X2006556D01*
X2003704Y1610246D02*
Y1610425D01*
X2003804Y1610146D02*
Y1610525D01*
X2003904Y1610046D02*
Y1610625D01*
X2004004Y1609946D02*
Y1610725D01*
X2004104Y1609846D02*
Y1610825D01*
X2004204Y1609746D02*
Y1610925D01*
X2004304Y1609646D02*
Y1611025D01*
X2004404Y1609546D02*
Y1611125D01*
X2004504Y1609446D02*
Y1611225D01*
X2004604Y1609346D02*
Y1611325D01*
X2004704Y1609246D02*
Y1611425D01*
X2004804Y1609146D02*
Y1611525D01*
X2004904Y1609046D02*
Y1611625D01*
X2005004Y1608946D02*
Y1611725D01*
X2005104Y1608846D02*
Y1611825D01*
X2005204Y1608746D02*
Y1611925D01*
X2005304Y1608646D02*
Y1612025D01*
X2005404Y1608546D02*
Y1612125D01*
X2005504Y1608446D02*
Y1612225D01*
X2005604Y1608346D02*
Y1612325D01*
X2005704Y1608246D02*
Y1612425D01*
X2005804Y1608146D02*
Y1612525D01*
X2005904Y1608046D02*
Y1612625D01*
X2006004Y1607946D02*
Y1612725D01*
X2006104Y1607846D02*
Y1612825D01*
X2006204Y1607746D02*
Y1612925D01*
X2006304Y1607646D02*
Y1613025D01*
X2006404Y1607546D02*
Y1613125D01*
X2006504Y1607446D02*
Y1613156D01*
X2006604Y1607346D02*
Y1613056D01*
X2006704Y1607246D02*
Y1612956D01*
X2006804Y1607259D02*
Y1612856D01*
X2006904Y1607359D02*
Y1612756D01*
X2007004Y1607459D02*
Y1612656D01*
X2007104Y1607559D02*
Y1612556D01*
X2007204Y1607659D02*
Y1612456D01*
X2007304Y1607759D02*
Y1612356D01*
X2007404Y1607859D02*
Y1612256D01*
X2007504Y1607959D02*
Y1612156D01*
X2007604Y1608059D02*
Y1612056D01*
X2007704Y1608159D02*
Y1611956D01*
X2007804Y1608259D02*
Y1611856D01*
X2007904Y1608359D02*
Y1611756D01*
X2008004Y1608459D02*
Y1611656D01*
X2008104Y1608559D02*
Y1611556D01*
X2008204Y1608659D02*
Y1611456D01*
X2008304Y1608759D02*
Y1611356D01*
X2008404Y1608859D02*
Y1611256D01*
X2008504Y1608959D02*
Y1611156D01*
X2008604Y1609059D02*
Y1611056D01*
X2008704Y1609159D02*
Y1610956D01*
X2008804Y1609259D02*
Y1610856D01*
X2008904Y1609359D02*
Y1610756D01*
X2009004Y1609459D02*
Y1610656D01*
X2009104Y1609559D02*
Y1610556D01*
X2009204Y1609659D02*
Y1610456D01*
X2009304Y1609759D02*
Y1610356D01*
X2009404Y1609859D02*
Y1610256D01*
X2009504Y1609959D02*
Y1610156D01*
G54D24*
X1993532Y1599457D02*
X1990404Y1602586D01*
X1987275Y1599457*
X1990404Y1596329*
X1993532Y1599457*
X1987404Y1599329D02*
Y1599586D01*
X1987654Y1599079D02*
Y1599836D01*
X1987904Y1598829D02*
Y1600086D01*
X1988154Y1598579D02*
Y1600336D01*
X1988404Y1598329D02*
Y1600586D01*
X1988654Y1598079D02*
Y1600836D01*
X1988904Y1597829D02*
Y1601086D01*
X1989154Y1597579D02*
Y1601336D01*
X1989404Y1597329D02*
Y1601586D01*
X1989654Y1597079D02*
Y1601836D01*
X1989904Y1596829D02*
Y1602086D01*
X1990154Y1596579D02*
Y1602336D01*
X1990404Y1596329D02*
Y1602586D01*
X1990654Y1596579D02*
Y1602336D01*
X1990904Y1596829D02*
Y1602086D01*
X1991154Y1597079D02*
Y1601836D01*
X1991404Y1597329D02*
Y1601586D01*
X1991654Y1597579D02*
Y1601336D01*
X1991904Y1597829D02*
Y1601086D01*
X1992154Y1598079D02*
Y1600836D01*
X1992404Y1598329D02*
Y1600586D01*
X1992654Y1598579D02*
Y1600336D01*
X1992904Y1598829D02*
Y1600086D01*
X1993154Y1599079D02*
Y1599836D01*
X1993404Y1599329D02*
Y1599586D01*
X1997987Y1595003D02*
X1994858Y1598132D01*
X1991730Y1595003*
X1994858Y1591875*
X1997987Y1595003*
X1991904Y1594829D02*
Y1595177D01*
X1992154Y1594579D02*
Y1595427D01*
X1992404Y1594329D02*
Y1595677D01*
X1992654Y1594079D02*
Y1595927D01*
X1992904Y1593829D02*
Y1596177D01*
X1993154Y1593579D02*
Y1596427D01*
X1993404Y1593329D02*
Y1596677D01*
X1993654Y1593079D02*
Y1596927D01*
X1993904Y1592829D02*
Y1597177D01*
X1994154Y1592579D02*
Y1597427D01*
X1994404Y1592329D02*
Y1597677D01*
X1994654Y1592079D02*
Y1597927D01*
X1994904Y1591920D02*
Y1598086D01*
X1995154Y1592170D02*
Y1597836D01*
X1995404Y1592420D02*
Y1597586D01*
X1995654Y1592670D02*
Y1597336D01*
X1995904Y1592920D02*
Y1597086D01*
X1996154Y1593170D02*
Y1596836D01*
X1996404Y1593420D02*
Y1596586D01*
X1996654Y1593670D02*
Y1596336D01*
X1996904Y1593920D02*
Y1596086D01*
X1997154Y1594170D02*
Y1595836D01*
X1997404Y1594420D02*
Y1595586D01*
X1997654Y1594670D02*
Y1595336D01*
X1997904Y1594920D02*
Y1595086D01*
X1993532Y1590549D02*
X1990404Y1593677D01*
X1987275Y1590549*
X1990404Y1587420*
X1993532Y1590549*
X1987404Y1590420D02*
Y1590677D01*
X1987654Y1590170D02*
Y1590927D01*
X1987904Y1589920D02*
Y1591177D01*
X1988154Y1589670D02*
Y1591427D01*
X1988404Y1589420D02*
Y1591677D01*
X1988654Y1589170D02*
Y1591927D01*
X1988904Y1588920D02*
Y1592177D01*
X1989154Y1588670D02*
Y1592427D01*
X1989404Y1588420D02*
Y1592677D01*
X1989654Y1588170D02*
Y1592927D01*
X1989904Y1587920D02*
Y1593177D01*
X1990154Y1587670D02*
Y1593427D01*
X1990404Y1587420D02*
Y1593677D01*
X1990654Y1587670D02*
Y1593427D01*
X1990904Y1587920D02*
Y1593177D01*
X1991154Y1588170D02*
Y1592927D01*
X1991404Y1588420D02*
Y1592677D01*
X1991654Y1588670D02*
Y1592427D01*
X1991904Y1588920D02*
Y1592177D01*
X1992154Y1589170D02*
Y1591927D01*
X1992404Y1589420D02*
Y1591677D01*
X1992654Y1589670D02*
Y1591427D01*
X1992904Y1589920D02*
Y1591177D01*
X1993154Y1590170D02*
Y1590927D01*
X1993404Y1590420D02*
Y1590677D01*
X1989078Y1595003D02*
X1985950Y1598132D01*
X1982821Y1595003*
X1985950Y1591875*
X1989078Y1595003*
X1982904Y1594920D02*
Y1595086D01*
X1983154Y1594670D02*
Y1595336D01*
X1983404Y1594420D02*
Y1595586D01*
X1983654Y1594170D02*
Y1595836D01*
X1983904Y1593920D02*
Y1596086D01*
X1984154Y1593670D02*
Y1596336D01*
X1984404Y1593420D02*
Y1596586D01*
X1984654Y1593170D02*
Y1596836D01*
X1984904Y1592920D02*
Y1597086D01*
X1985154Y1592670D02*
Y1597336D01*
X1985404Y1592420D02*
Y1597586D01*
X1985654Y1592170D02*
Y1597836D01*
X1985904Y1591920D02*
Y1598086D01*
X1986154Y1592079D02*
Y1597927D01*
X1986404Y1592329D02*
Y1597677D01*
X1986654Y1592579D02*
Y1597427D01*
X1986904Y1592829D02*
Y1597177D01*
X1987154Y1593079D02*
Y1596927D01*
X1987404Y1593329D02*
Y1596677D01*
X1987654Y1593579D02*
Y1596427D01*
X1987904Y1593829D02*
Y1596177D01*
X1988154Y1594079D02*
Y1595927D01*
X1988404Y1594329D02*
Y1595677D01*
X1988654Y1594579D02*
Y1595427D01*
X1988904Y1594829D02*
Y1595177D01*
X1968504Y1640157D02*
X2020472D01*
Y1574803*
X1968504*
Y1640157*
G54D25*
X1975004Y1607414D02*
Y1609414D01*
X1977004*
Y1607414*
X1975004*
Y1607803D02*
X1977004D01*
X1975004Y1608403D02*
X1977004D01*
X1975004Y1609003D02*
X1977004D01*
X1975104Y1607414D02*
Y1609414D01*
X1975704Y1607414D02*
Y1609414D01*
X1976304Y1607414D02*
Y1609414D01*
X1976904Y1607414D02*
Y1609414D01*
X1975004Y1610792D02*
Y1612792D01*
X1977004*
Y1610792*
X1975004*
Y1610803D02*
X1977004D01*
X1975004Y1611403D02*
X1977004D01*
X1975004Y1612003D02*
X1977004D01*
X1975004Y1612603D02*
X1977004D01*
X1975104Y1610792D02*
Y1612792D01*
X1975704Y1610792D02*
Y1612792D01*
X1976304Y1610792D02*
Y1612792D01*
X1976904Y1610792D02*
Y1612792D01*
G54D31*
X2004424Y1605086D02*
Y1606677D01*
X2002293Y1608807*
X1999646Y1606160*
X2002572Y1603235*
X2004424Y1605086*
X1999742Y1606064D02*
Y1606256D01*
X1999939Y1605867D02*
Y1606453D01*
X2000136Y1605670D02*
Y1606650D01*
X2000333Y1605473D02*
Y1606847D01*
X2000530Y1605276D02*
Y1607043D01*
X2000727Y1605080D02*
Y1607240D01*
X2000924Y1604883D02*
Y1607437D01*
X2001120Y1604686D02*
Y1607634D01*
X2001317Y1604489D02*
Y1607831D01*
X2001514Y1604292D02*
Y1608028D01*
X2001711Y1604095D02*
Y1608224D01*
X2001908Y1603899D02*
Y1608421D01*
X2002105Y1603702D02*
Y1608618D01*
X2002302Y1603505D02*
Y1608799D01*
X2002498Y1603308D02*
Y1608602D01*
X2002695Y1603358D02*
Y1608405D01*
X2002892Y1603555D02*
Y1608208D01*
X2003089Y1603752D02*
Y1608011D01*
X2003286Y1603949D02*
Y1607814D01*
X2003483Y1604146D02*
Y1607618D01*
X2003679Y1604342D02*
Y1607421D01*
X2003876Y1604539D02*
Y1607224D01*
X2004073Y1604736D02*
Y1607027D01*
X2004270Y1604933D02*
Y1606830D01*
X2017516Y1577741D02*
Y1582187D01*
X2013070Y1577741*
X2017516*
X1971442D02*
X1975888D01*
X1971442Y1582187*
Y1577741*
X2017516Y1615965D02*
X2013070D01*
X2017516Y1611519*
Y1615965*
X2017403Y1582074D02*
X2017516D01*
X2017009Y1581680D02*
X2017516D01*
X2016615Y1581286D02*
X2017516D01*
X2016221Y1580892D02*
X2017516D01*
X2015827Y1580498D02*
X2017516D01*
X2015433Y1580104D02*
X2017516D01*
X2015039Y1579710D02*
X2017516D01*
X2014645Y1579316D02*
X2017516D01*
X2014251Y1578922D02*
X2017516D01*
X2013857Y1578528D02*
X2017516D01*
X2013463Y1578134D02*
X2017516D01*
X1971442D02*
X1975495D01*
X1971442Y1578528D02*
X1975101D01*
X1971442Y1578922D02*
X1974707D01*
X1971442Y1579316D02*
X1974313D01*
X1971442Y1579710D02*
X1973919D01*
X1971442Y1580104D02*
X1973525D01*
X1971442Y1580498D02*
X1973131D01*
X1971442Y1580892D02*
X1972737D01*
X1971442Y1581286D02*
X1972343D01*
X1971442Y1581680D02*
X1971949D01*
X1971442Y1582074D02*
X1971555D01*
X2013183Y1615852D02*
X2017516D01*
X2013577Y1615458D02*
X2017516D01*
X2013971Y1615064D02*
X2017516D01*
X2014365Y1614670D02*
X2017516D01*
X2014759Y1614276D02*
X2017516D01*
X2015153Y1613882D02*
X2017516D01*
X2015547Y1613488D02*
X2017516D01*
X2015941Y1613094D02*
X2017516D01*
X2016335Y1612700D02*
X2017516D01*
X2016729Y1612306D02*
X2017516D01*
X2017123Y1611912D02*
X2017516D01*
X2017404Y1577741D02*
Y1582075D01*
X2017010Y1577741D02*
Y1581681D01*
X2016616Y1577741D02*
Y1581287D01*
X2016222Y1577741D02*
Y1580893D01*
X2015828Y1577741D02*
Y1580499D01*
X2015434Y1577741D02*
Y1580105D01*
X2015040Y1577741D02*
Y1579711D01*
X2014646Y1577741D02*
Y1579317D01*
X2014252Y1577741D02*
Y1578923D01*
X2013858Y1577741D02*
Y1578529D01*
X2013464Y1577741D02*
Y1578135D01*
X1975776Y1577741D02*
Y1577853D01*
X1975382Y1577741D02*
Y1578247D01*
X1974988Y1577741D02*
Y1578641D01*
X1974594Y1577741D02*
Y1579035D01*
X1974200Y1577741D02*
Y1579429D01*
X1973806Y1577741D02*
Y1579823D01*
X1973412Y1577741D02*
Y1580217D01*
X1973018Y1577741D02*
Y1580611D01*
X1972624Y1577741D02*
Y1581005D01*
X1972230Y1577741D02*
Y1581399D01*
X1971836Y1577741D02*
Y1581793D01*
X2017404Y1611631D02*
Y1615965D01*
X2017010Y1612025D02*
Y1615965D01*
X2016616Y1612419D02*
Y1615965D01*
X2016222Y1612813D02*
Y1615965D01*
X2015828Y1613207D02*
Y1615965D01*
X2015434Y1613601D02*
Y1615965D01*
X2015040Y1613995D02*
Y1615965D01*
X2014646Y1614389D02*
Y1615965D01*
X2014252Y1614783D02*
Y1615965D01*
X2013858Y1615177D02*
Y1615965D01*
X2013464Y1615571D02*
Y1615965D01*
G54D36*
X1973622Y1616142D02*
X1971260D01*
Y1577559*
X2017717*
Y1616142*
X1987008*
G54D347*
X1975304Y1604481D03*
Y1601725D03*
G54D348*
X1976966Y1618636D03*
X1971060Y1618877D03*
G54D399*
X1988010Y1604357D02*
X1988761Y1603605D01*
X1986618Y1602965D02*
X1987370Y1602213D01*
X1985226Y1601573D02*
X1985978Y1600821D01*
X1983834Y1600181D02*
X1984586Y1599430D01*
X1982442Y1598789D02*
X1983194Y1598038D01*
X1981050Y1597397D02*
X1981802Y1596646D01*
X1981050Y1592609D02*
X1981802Y1593361D01*
X1982442Y1591217D02*
X1983194Y1591969D01*
X1983834Y1589825D02*
X1984586Y1590577D01*
X1985226Y1588433D02*
X1985978Y1589185D01*
X1986618Y1587041D02*
X1987370Y1587793D01*
X1988010Y1585649D02*
X1988761Y1586401D01*
X1992046D02*
X1992798Y1585649D01*
X1993438Y1587793D02*
X1994190Y1587041D01*
X1994830Y1589185D02*
X1995582Y1588433D01*
X1996222Y1590577D02*
X1996974Y1589825D01*
X1997614Y1591969D02*
X1998366Y1591217D01*
X1999006Y1593361D02*
X1999758Y1592609D01*
X1999006Y1596646D02*
X1999758Y1597397D01*
X1997614Y1598038D02*
X1998366Y1598789D01*
X1996222Y1599430D02*
X1996974Y1600181D01*
X1994830Y1600821D02*
X1995582Y1601573D01*
X1993438Y1602213D02*
X1994190Y1602965D01*
X1992046Y1603605D02*
X1992798Y1604357D01*
G54D409*
X2000108Y1609372D02*
X1999273Y1610207D01*
X2000108Y1611042*
X2000108D02*
X2000943Y1610207D01*
X2000108Y1609372*
X1999797Y1609683D02*
X2000419D01*
X1999361Y1610119D02*
X2000855D01*
X1999621Y1610555D02*
X2000595D01*
X2000057Y1610991D02*
X2000159D01*
X1999460Y1610020D02*
Y1610394D01*
X1999896Y1609584D02*
Y1610830D01*
X2000332Y1609596D02*
Y1610819D01*
X2000768Y1610032D02*
Y1610383D01*
X2001500Y1610764D02*
X2000664Y1611599D01*
X2001500Y1612434*
X2002335Y1611599*
X2001500Y1610764*
X2001272Y1610991D02*
X2001727D01*
X2000836Y1611427D02*
X2002163D01*
X2000929Y1611863D02*
X2002071D01*
X2001365Y1612299D02*
X2001635D01*
X2000768Y1611495D02*
Y1611702D01*
X2001204Y1611059D02*
Y1612138D01*
X2001640Y1610904D02*
Y1612294D01*
X2002076Y1611340D02*
Y1611858D01*
X2000058Y1588414D02*
X1999223Y1589249D01*
X2000058Y1590084*
X2000893Y1589249*
X2000058Y1588414*
X1999717Y1588755D02*
X2000399D01*
X1999281Y1589191D02*
X2000835D01*
X1999601Y1589627D02*
X2000515D01*
X2000037Y1590063D02*
X2000079D01*
X1999460Y1589012D02*
Y1589486D01*
X1999896Y1588576D02*
Y1589922D01*
X2000332Y1588688D02*
Y1589810D01*
X2000768Y1589124D02*
Y1589374D01*
X2001450Y1587022D02*
X2000614Y1587857D01*
X2001450Y1588693*
X2002285Y1587857*
X2001450Y1587022*
X2001025Y1587447D02*
X2001875D01*
X2000640Y1587883D02*
X2002259D01*
X2001076Y1588319D02*
X2001823D01*
X2000768Y1587704D02*
Y1588011D01*
X2001204Y1587268D02*
Y1588447D01*
X2001640Y1587212D02*
Y1588502D01*
X2002076Y1587648D02*
Y1588066D01*
X1981058Y1611102D02*
X1980223Y1611937D01*
X1981058Y1612772*
X1981058D02*
X1981893Y1611937D01*
X1981058Y1611102*
X1980733Y1611427D02*
X1981383D01*
X1980297Y1611863D02*
X1981819D01*
X1980585Y1612299D02*
X1981531D01*
X1981021Y1612735D02*
X1981095D01*
X1980276Y1611884D02*
Y1611990D01*
X1980712Y1611448D02*
Y1612426D01*
X1981148Y1611192D02*
Y1612683D01*
X1981584Y1611628D02*
Y1612247D01*
X1982450Y1612494D02*
X1981614Y1613329D01*
X1982450Y1614164*
X1983285Y1613329*
X1982450Y1612494*
X1982208Y1612735D02*
X1982691D01*
X1981772Y1613171D02*
X1983127D01*
X1981893Y1613607D02*
X1983007D01*
X1982329Y1614043D02*
X1982571D01*
X1982020Y1612923D02*
Y1613734D01*
X1982456Y1612500D02*
Y1614158D01*
X1982892Y1612936D02*
Y1613722D01*
X2000508Y1599764D02*
X1999673Y1600599D01*
X2000508Y1601434*
X2001343Y1600599*
X2000508Y1599764*
X2000181Y1600091D02*
X2000835D01*
X1999745Y1600527D02*
X2001271D01*
X2000037Y1600963D02*
X2000979D01*
X2000473Y1601399D02*
X2000543D01*
X1999896Y1600376D02*
Y1600822D01*
X2000332Y1599940D02*
Y1601258D01*
X2000768Y1600024D02*
Y1601174D01*
X2001204Y1600460D02*
Y1600738D01*
X2001900Y1598372D02*
X2001064Y1599207D01*
X2001900Y1600043*
X2002735Y1599207*
X2001900Y1598372*
X2001489Y1598783D02*
X2002311D01*
X2001076Y1599219D02*
X2002723D01*
X2001512Y1599655D02*
X2002287D01*
X2001204Y1599068D02*
Y1599347D01*
X2001640Y1598632D02*
Y1599783D01*
X2002076Y1598548D02*
Y1599866D01*
X2002512Y1598984D02*
Y1599430D01*
X2013100Y1599264D02*
X2012265Y1600099D01*
X2013100Y1600934*
X2013935Y1600099*
X2013100Y1599264*
X2012709Y1599655D02*
X2013491D01*
X2012273Y1600091D02*
X2013927D01*
X2012693Y1600527D02*
X2013507D01*
X2012540Y1599824D02*
Y1600374D01*
X2012976Y1599388D02*
Y1600810D01*
X2013412Y1599576D02*
Y1600622D01*
X2013848Y1600012D02*
Y1600186D01*
X2011708Y1597872D02*
X2010873Y1598707D01*
X2011708Y1599543*
X2012543Y1598707*
X2011708Y1597872*
X2011669Y1597911D02*
X2011747D01*
X2011233Y1598347D02*
X2012183D01*
X2010949Y1598783D02*
X2012468D01*
X2011385Y1599219D02*
X2012032D01*
X2011232Y1598348D02*
Y1599066D01*
X2011668Y1597912D02*
Y1599502D01*
X2012104Y1598268D02*
Y1599147D01*
X2012540Y1598704D02*
Y1598711D01*
X1982913Y1583947D02*
Y1585128D01*
X1984095*
Y1583947*
X1982913*
Y1583959D02*
X1984095D01*
X1982913Y1584395D02*
X1984095D01*
X1982913Y1584831D02*
X1984095D01*
X1983328Y1583947D02*
Y1585128D01*
X1983764Y1583947D02*
Y1585128D01*
X1982913Y1581978D02*
Y1583160D01*
X1984095*
Y1581978*
X1982913*
Y1582215D02*
X1984095D01*
X1982913Y1582651D02*
X1984095D01*
X1982913Y1583087D02*
X1984095D01*
X1983328Y1581978D02*
Y1583160D01*
X1983764Y1581978D02*
Y1583160D01*
X1983113Y1602728D02*
Y1603910D01*
X1984295*
Y1602728*
X1983113*
Y1603143D02*
X1984295D01*
X1983113Y1603579D02*
X1984295D01*
X1983328Y1602728D02*
Y1603910D01*
X1983764Y1602728D02*
Y1603910D01*
X1984200Y1602728D02*
Y1603910D01*
X1983113Y1604696D02*
Y1605878D01*
X1984295*
Y1604696*
X1983113*
Y1604887D02*
X1984295D01*
X1983113Y1605323D02*
X1984295D01*
X1983113Y1605759D02*
X1984295D01*
X1983328Y1604696D02*
Y1605878D01*
X1983764Y1604696D02*
Y1605878D01*
X1984200Y1604696D02*
Y1605878D01*
X1993908Y1606272D02*
X1993073Y1607107D01*
X1993908Y1607942*
X1993908D02*
X1994743Y1607107D01*
X1993908Y1606272*
X1993549Y1606631D02*
X1994267D01*
X1993113Y1607067D02*
X1994703D01*
X1993469Y1607503D02*
X1994347D01*
X1993905Y1607939D02*
X1993911D01*
X1993356Y1606824D02*
Y1607390D01*
X1993792Y1606388D02*
Y1607826D01*
X1994228Y1606592D02*
Y1607623D01*
X1994664Y1607028D02*
Y1607187D01*
X1995300Y1607664D02*
X1994464Y1608499D01*
X1995300Y1609334*
X1996135Y1608499*
X1995300Y1607664*
X1995024Y1607939D02*
X1995575D01*
X1994588Y1608375D02*
X1996011D01*
X1994777Y1608811D02*
X1995823D01*
X1995213Y1609247D02*
X1995387D01*
X1994664Y1608299D02*
Y1608698D01*
X1995100Y1607863D02*
Y1609134D01*
X1995536Y1607900D02*
Y1609098D01*
X1995972Y1608336D02*
Y1608662D01*
X1978113Y1604697D02*
Y1605878D01*
X1979295*
Y1604697*
X1978113*
Y1604887D02*
X1979295D01*
X1978113Y1605323D02*
X1979295D01*
X1978113Y1605759D02*
X1979295D01*
X1978532Y1604697D02*
Y1605878D01*
X1978968Y1604697D02*
Y1605878D01*
X1978113Y1602728D02*
Y1603910D01*
X1979295*
Y1602728*
X1978113*
Y1603143D02*
X1979295D01*
X1978113Y1603579D02*
X1979295D01*
X1978532Y1602728D02*
Y1603910D01*
X1978968Y1602728D02*
Y1603910D01*
X1988660Y1609054D02*
X1987825Y1609889D01*
X1988660Y1610724*
X1989495Y1609889*
X1988660Y1609054*
X1988467Y1609247D02*
X1988853D01*
X1988031Y1609683D02*
X1989289D01*
X1988055Y1610119D02*
X1989265D01*
X1988491Y1610555D02*
X1988829D01*
X1988124Y1609590D02*
Y1610188D01*
X1988560Y1609154D02*
Y1610624D01*
X1988996Y1609390D02*
Y1610388D01*
X1989432Y1609826D02*
Y1609952D01*
X1987268Y1607662D02*
X1986433Y1608497D01*
X1987268Y1609333*
X1988103Y1608497*
X1987268Y1607662*
X1986991Y1607939D02*
X1987545D01*
X1986555Y1608375D02*
X1987981D01*
X1986747Y1608811D02*
X1987790D01*
X1987183Y1609247D02*
X1987354D01*
X1986816Y1608114D02*
Y1608880D01*
X1987252Y1607678D02*
Y1609316D01*
X1987688Y1608082D02*
Y1608913D01*
X1980613Y1602728D02*
Y1603910D01*
X1981795*
Y1602728*
X1980613*
Y1603143D02*
X1981795D01*
X1980613Y1603579D02*
X1981795D01*
X1980712Y1602728D02*
Y1603910D01*
X1981148Y1602728D02*
Y1603910D01*
X1981584Y1602728D02*
Y1603910D01*
X1980613Y1604697D02*
Y1605878D01*
X1981795*
Y1604697*
X1980613*
Y1604887D02*
X1981795D01*
X1980613Y1605323D02*
X1981795D01*
X1980613Y1605759D02*
X1981795D01*
X1980712Y1604697D02*
Y1605878D01*
X1981148Y1604697D02*
Y1605878D01*
X1981584Y1604697D02*
Y1605878D01*
X1985560Y1609372D02*
X1984725Y1610207D01*
X1985560Y1611042*
X1985560D02*
X1986395Y1610207D01*
X1985560Y1609372*
X1985249Y1609683D02*
X1985871D01*
X1984813Y1610119D02*
X1986307D01*
X1985073Y1610555D02*
X1986047D01*
X1985509Y1610991D02*
X1985611D01*
X1985072Y1609860D02*
Y1610555D01*
X1985508Y1609424D02*
Y1610991D01*
X1985944Y1609756D02*
Y1610658D01*
X1986380Y1610192D02*
Y1610222D01*
X1984168Y1610764D02*
X1983333Y1611599D01*
X1984168Y1612434*
X1985003Y1611599*
X1984168Y1610764*
X1983941Y1610991D02*
X1984395D01*
X1983505Y1611427D02*
X1984831D01*
X1983597Y1611863D02*
X1984739D01*
X1984033Y1612299D02*
X1984303D01*
X1983764Y1611168D02*
Y1612030D01*
X1984200Y1610796D02*
Y1612402D01*
X1984636Y1611232D02*
Y1611966D01*
X1996508Y1604464D02*
X1995673Y1605299D01*
X1996508Y1606134*
X1997343Y1605299*
X1996508Y1604464*
X1996085Y1604887D02*
X1996932D01*
X1995697Y1605323D02*
X1997319D01*
X1996133Y1605759D02*
X1996883D01*
X1995972Y1605000D02*
Y1605598D01*
X1996408Y1604564D02*
Y1606034D01*
X1996844Y1604799D02*
Y1605798D01*
X1997280Y1605235D02*
Y1605362D01*
X1997900Y1603072D02*
X1997065Y1603907D01*
X1997900Y1604742*
X1997900D02*
X1998735Y1603907D01*
X1997900Y1603072*
X1997829Y1603143D02*
X1997971D01*
X1997393Y1603579D02*
X1998407D01*
X1997173Y1604015D02*
X1998627D01*
X1997609Y1604451D02*
X1998191D01*
X1997280Y1603692D02*
Y1604123D01*
X1997716Y1603256D02*
Y1604559D01*
X1998152Y1603324D02*
Y1604490D01*
X1998588Y1603760D02*
Y1604054D01*
X2003808Y1595414D02*
X2002973Y1596249D01*
X2003808Y1597084*
X2004643Y1596249*
X2003808Y1595414*
X2003491Y1595731D02*
X2004126D01*
X2003055Y1596167D02*
X2004562D01*
X2003327Y1596603D02*
X2004289D01*
X2003763Y1597039D02*
X2003853D01*
X2003384Y1595838D02*
Y1596660D01*
X2003820Y1595425D02*
Y1597072D01*
X2004256Y1595861D02*
Y1596636D01*
X2005200Y1594022D02*
X2004365Y1594857D01*
X2005200Y1595692*
X2005200D02*
X2006035Y1594857D01*
X2005200Y1594022*
X2004799Y1594423D02*
X2005601D01*
X2004367Y1594859D02*
X2006033D01*
X2004803Y1595295D02*
X2005597D01*
X2004692Y1594530D02*
Y1595185D01*
X2005128Y1594094D02*
Y1595621D01*
X2005564Y1594386D02*
Y1595328D01*
X2006000Y1594822D02*
Y1594892D01*
X0Y0D02*
M02*
